<svg width="242" height="153" viewBox="0 0 242 153" fill="none" xmlns="http://www.w3.org/2000/svg">
<g filter="url(#filter0_dddd_510_4377)">
<rect x="51" y="18.5195" width="140" height="50" rx="4" fill="black"/>
</g>
<path d="M81.7973 44.0999C81.819 42.4189 82.7217 40.8283 84.1539 39.9478C83.2504 38.6575 81.7371 37.8394 80.1627 37.7902C78.4835 37.6139 76.8555 38.795 75.9998 38.795C75.1275 38.795 73.81 37.8077 72.3913 37.8368C70.5421 37.8966 68.8181 38.948 67.9184 40.5647C65.9844 43.9131 67.427 48.8342 69.2796 51.5408C70.2065 52.8661 71.2898 54.3466 72.7072 54.2941C74.0943 54.2366 74.6123 53.4096 76.2866 53.4096C77.9454 53.4096 78.4314 54.2941 79.8776 54.2607C81.366 54.2365 82.3038 52.9295 83.1981 51.5916C83.8641 50.6472 84.3766 49.6035 84.7166 48.4991C82.9674 47.7593 81.7994 45.999 81.7973 44.0999Z" fill="white"/>
<path d="M79.0656 36.0102C79.8772 35.0359 80.277 33.7838 80.1802 32.5195C78.9403 32.6498 77.7951 33.2423 76.9726 34.1791C76.1683 35.0945 75.7497 36.3246 75.8289 37.5405C77.0692 37.5533 78.2885 36.9768 79.0656 36.0102Z" fill="white"/>
<path d="M93.05 41.5195V34.5195H96C96.7467 34.5195 97.4033 34.6662 97.97 34.9595C98.5433 35.2529 98.9867 35.6629 99.3 36.1895C99.62 36.7162 99.78 37.3262 99.78 38.0195C99.78 38.7129 99.62 39.3229 99.3 39.8495C98.9867 40.3762 98.5433 40.7862 97.97 41.0795C97.4033 41.3729 96.7467 41.5195 96 41.5195H93.05ZM94.05 40.6495H95.94C96.52 40.6495 97.02 40.5395 97.44 40.3195C97.8667 40.0995 98.1967 39.7929 98.43 39.3995C98.6633 38.9995 98.78 38.5395 98.78 38.0195C98.78 37.4929 98.6633 37.0329 98.43 36.6395C98.1967 36.2462 97.8667 35.9395 97.44 35.7195C97.02 35.4995 96.52 35.3895 95.94 35.3895H94.05V40.6495ZM103.442 41.5795C102.908 41.5795 102.435 41.4629 102.022 41.2295C101.608 40.9962 101.282 40.6762 101.042 40.2695C100.802 39.8562 100.682 39.3895 100.682 38.8695C100.682 38.3429 100.802 37.8762 101.042 37.4695C101.282 37.0629 101.608 36.7462 102.022 36.5195C102.435 36.2862 102.908 36.1695 103.442 36.1695C103.968 36.1695 104.438 36.2862 104.852 36.5195C105.272 36.7462 105.598 37.0629 105.832 37.4695C106.072 37.8695 106.192 38.3362 106.192 38.8695C106.192 39.3962 106.072 39.8629 105.832 40.2695C105.598 40.6762 105.272 40.9962 104.852 41.2295C104.438 41.4629 103.968 41.5795 103.442 41.5795ZM103.442 40.7395C103.782 40.7395 104.085 40.6629 104.352 40.5095C104.625 40.3562 104.838 40.1395 104.992 39.8595C105.145 39.5729 105.222 39.2429 105.222 38.8695C105.222 38.4895 105.145 38.1629 104.992 37.8895C104.838 37.6095 104.625 37.3929 104.352 37.2395C104.085 37.0862 103.782 37.0095 103.442 37.0095C103.102 37.0095 102.798 37.0862 102.532 37.2395C102.265 37.3929 102.052 37.6095 101.892 37.8895C101.732 38.1629 101.652 38.4895 101.652 38.8695C101.652 39.2429 101.732 39.5729 101.892 39.8595C102.052 40.1395 102.265 40.3562 102.532 40.5095C102.798 40.6629 103.102 40.7395 103.442 40.7395ZM108.493 41.5195L106.523 36.2195H107.433L109.183 41.0195H108.753L110.573 36.2195H111.383L113.163 41.0195H112.743L114.533 36.2195H115.393L113.413 41.5195H112.493L110.823 37.1395H111.103L109.413 41.5195H108.493ZM119.197 36.1695C119.63 36.1695 120.01 36.2529 120.337 36.4195C120.67 36.5862 120.93 36.8395 121.117 37.1795C121.304 37.5195 121.397 37.9495 121.397 38.4695V41.5195H120.437V38.5795C120.437 38.0662 120.31 37.6795 120.057 37.4195C119.81 37.1595 119.46 37.0295 119.007 37.0295C118.667 37.0295 118.37 37.0962 118.117 37.2295C117.864 37.3629 117.667 37.5595 117.527 37.8195C117.394 38.0795 117.327 38.4029 117.327 38.7895V41.5195H116.367V36.2195H117.287V37.6495L117.137 37.2695C117.31 36.9229 117.577 36.6529 117.937 36.4595C118.297 36.2662 118.717 36.1695 119.197 36.1695ZM123.174 41.5195V34.0995H124.134V41.5195H123.174ZM128.237 41.5795C127.703 41.5795 127.23 41.4629 126.817 41.2295C126.403 40.9962 126.077 40.6762 125.837 40.2695C125.597 39.8562 125.477 39.3895 125.477 38.8695C125.477 38.3429 125.597 37.8762 125.837 37.4695C126.077 37.0629 126.403 36.7462 126.817 36.5195C127.23 36.2862 127.703 36.1695 128.237 36.1695C128.763 36.1695 129.233 36.2862 129.647 36.5195C130.067 36.7462 130.393 37.0629 130.627 37.4695C130.867 37.8695 130.987 38.3362 130.987 38.8695C130.987 39.3962 130.867 39.8629 130.627 40.2695C130.393 40.6762 130.067 40.9962 129.647 41.2295C129.233 41.4629 128.763 41.5795 128.237 41.5795ZM128.237 40.7395C128.577 40.7395 128.88 40.6629 129.147 40.5095C129.42 40.3562 129.633 40.1395 129.787 39.8595C129.94 39.5729 130.017 39.2429 130.017 38.8695C130.017 38.4895 129.94 38.1629 129.787 37.8895C129.633 37.6095 129.42 37.3929 129.147 37.2395C128.88 37.0862 128.577 37.0095 128.237 37.0095C127.897 37.0095 127.593 37.0862 127.327 37.2395C127.06 37.3929 126.847 37.6095 126.687 37.8895C126.527 38.1629 126.447 38.4895 126.447 38.8695C126.447 39.2429 126.527 39.5729 126.687 39.8595C126.847 40.1395 127.06 40.3562 127.327 40.5095C127.593 40.6629 127.897 40.7395 128.237 40.7395ZM135.555 41.5195V40.3995L135.505 40.1895V38.2795C135.505 37.8729 135.385 37.5595 135.145 37.3395C134.912 37.1129 134.559 36.9995 134.085 36.9995C133.772 36.9995 133.465 37.0529 133.165 37.1595C132.865 37.2595 132.612 37.3962 132.405 37.5695L132.005 36.8495C132.279 36.6295 132.605 36.4629 132.985 36.3495C133.372 36.2295 133.775 36.1695 134.195 36.1695C134.922 36.1695 135.482 36.3462 135.875 36.6995C136.269 37.0529 136.465 37.5929 136.465 38.3195V41.5195H135.555ZM133.815 41.5795C133.422 41.5795 133.075 41.5129 132.775 41.3795C132.482 41.2462 132.255 41.0629 132.095 40.8295C131.935 40.5895 131.855 40.3195 131.855 40.0195C131.855 39.7329 131.922 39.4729 132.055 39.2395C132.195 39.0062 132.419 38.8195 132.725 38.6795C133.039 38.5395 133.459 38.4695 133.985 38.4695H135.665V39.1595H134.025C133.545 39.1595 133.222 39.2395 133.055 39.3995C132.889 39.5595 132.805 39.7529 132.805 39.9795C132.805 40.2395 132.909 40.4495 133.115 40.6095C133.322 40.7629 133.609 40.8395 133.975 40.8395C134.335 40.8395 134.649 40.7595 134.915 40.5995C135.189 40.4395 135.385 40.2062 135.505 39.8995L135.695 40.5595C135.569 40.8729 135.345 41.1229 135.025 41.3095C134.705 41.4895 134.302 41.5795 133.815 41.5795ZM140.432 41.5795C139.919 41.5795 139.459 41.4662 139.052 41.2395C138.652 41.0129 138.335 40.6962 138.102 40.2895C137.869 39.8829 137.752 39.4095 137.752 38.8695C137.752 38.3295 137.869 37.8595 138.102 37.4595C138.335 37.0529 138.652 36.7362 139.052 36.5095C139.459 36.2829 139.919 36.1695 140.432 36.1695C140.879 36.1695 141.282 36.2695 141.642 36.4695C142.002 36.6695 142.289 36.9695 142.502 37.3695C142.722 37.7695 142.832 38.2695 142.832 38.8695C142.832 39.4695 142.725 39.9695 142.512 40.3695C142.305 40.7695 142.022 41.0729 141.662 41.2795C141.302 41.4795 140.892 41.5795 140.432 41.5795ZM140.512 40.7395C140.845 40.7395 141.145 40.6629 141.412 40.5095C141.685 40.3562 141.899 40.1395 142.052 39.8595C142.212 39.5729 142.292 39.2429 142.292 38.8695C142.292 38.4895 142.212 38.1629 142.052 37.8895C141.899 37.6095 141.685 37.3929 141.412 37.2395C141.145 37.0862 140.845 37.0095 140.512 37.0095C140.172 37.0095 139.869 37.0862 139.602 37.2395C139.335 37.3929 139.122 37.6095 138.962 37.8895C138.802 38.1629 138.722 38.4895 138.722 38.8695C138.722 39.2429 138.802 39.5729 138.962 39.8595C139.122 40.1395 139.335 40.3562 139.602 40.5095C139.869 40.6629 140.172 40.7395 140.512 40.7395ZM142.322 41.5195V40.0895L142.382 38.8595L142.282 37.6295V34.0995H143.242V41.5195H142.322ZM150.014 41.5795C149.481 41.5795 149.007 41.4629 148.594 41.2295C148.181 40.9962 147.854 40.6762 147.614 40.2695C147.374 39.8562 147.254 39.3895 147.254 38.8695C147.254 38.3429 147.374 37.8762 147.614 37.4695C147.854 37.0629 148.181 36.7462 148.594 36.5195C149.007 36.2862 149.481 36.1695 150.014 36.1695C150.541 36.1695 151.011 36.2862 151.424 36.5195C151.844 36.7462 152.171 37.0629 152.404 37.4695C152.644 37.8695 152.764 38.3362 152.764 38.8695C152.764 39.3962 152.644 39.8629 152.404 40.2695C152.171 40.6762 151.844 40.9962 151.424 41.2295C151.011 41.4629 150.541 41.5795 150.014 41.5795ZM150.014 40.7395C150.354 40.7395 150.657 40.6629 150.924 40.5095C151.197 40.3562 151.411 40.1395 151.564 39.8595C151.717 39.5729 151.794 39.2429 151.794 38.8695C151.794 38.4895 151.717 38.1629 151.564 37.8895C151.411 37.6095 151.197 37.3929 150.924 37.2395C150.657 37.0862 150.354 37.0095 150.014 37.0095C149.674 37.0095 149.371 37.0862 149.104 37.2395C148.837 37.3929 148.624 37.6095 148.464 37.8895C148.304 38.1629 148.224 38.4895 148.224 38.8695C148.224 39.2429 148.304 39.5729 148.464 39.8595C148.624 40.1395 148.837 40.3562 149.104 40.5095C149.371 40.6629 149.674 40.7395 150.014 40.7395ZM156.922 36.1695C157.355 36.1695 157.735 36.2529 158.062 36.4195C158.395 36.5862 158.655 36.8395 158.842 37.1795C159.028 37.5195 159.122 37.9495 159.122 38.4695V41.5195H158.162V38.5795C158.162 38.0662 158.035 37.6795 157.782 37.4195C157.535 37.1595 157.185 37.0295 156.732 37.0295C156.392 37.0295 156.095 37.0962 155.842 37.2295C155.588 37.3629 155.392 37.5595 155.252 37.8195C155.118 38.0795 155.052 38.4029 155.052 38.7895V41.5195H154.092V36.2195H155.012V37.6495L154.862 37.2695C155.035 36.9229 155.302 36.6529 155.662 36.4595C156.022 36.2662 156.442 36.1695 156.922 36.1695ZM165.404 41.5795C164.87 41.5795 164.457 41.4362 164.164 41.1495C163.87 40.8629 163.724 40.4529 163.724 39.9195V35.0595H164.684V39.8795C164.684 40.1662 164.754 40.3862 164.894 40.5395C165.04 40.6929 165.247 40.7695 165.514 40.7695C165.814 40.7695 166.064 40.6862 166.264 40.5195L166.564 41.2095C166.417 41.3362 166.24 41.4295 166.034 41.4895C165.834 41.5495 165.624 41.5795 165.404 41.5795ZM162.824 37.0095V36.2195H166.204V37.0095H162.824ZM170.554 36.1695C170.988 36.1695 171.368 36.2529 171.694 36.4195C172.028 36.5862 172.288 36.8395 172.474 37.1795C172.661 37.5195 172.754 37.9495 172.754 38.4695V41.5195H171.794V38.5795C171.794 38.0662 171.668 37.6795 171.414 37.4195C171.168 37.1595 170.818 37.0295 170.364 37.0295C170.024 37.0295 169.728 37.0962 169.474 37.2295C169.221 37.3629 169.024 37.5595 168.884 37.8195C168.751 38.0795 168.684 38.4029 168.684 38.7895V41.5195H167.724V34.0995H168.684V37.6495L168.494 37.2695C168.668 36.9229 168.934 36.6529 169.294 36.4595C169.654 36.2662 170.074 36.1695 170.554 36.1695ZM176.891 41.5795C176.324 41.5795 175.824 41.4629 175.391 41.2295C174.964 40.9962 174.631 40.6762 174.391 40.2695C174.158 39.8629 174.041 39.3962 174.041 38.8695C174.041 38.3429 174.154 37.8762 174.381 37.4695C174.614 37.0629 174.931 36.7462 175.331 36.5195C175.738 36.2862 176.194 36.1695 176.701 36.1695C177.214 36.1695 177.668 36.2829 178.061 36.5095C178.454 36.7362 178.761 37.0562 178.981 37.4695C179.208 37.8762 179.321 38.3529 179.321 38.8995C179.321 38.9395 179.318 38.9862 179.311 39.0395C179.311 39.0929 179.308 39.1429 179.301 39.1895H174.791V38.4995H178.801L178.411 38.7395C178.418 38.3995 178.348 38.0962 178.201 37.8295C178.054 37.5629 177.851 37.3562 177.591 37.2095C177.338 37.0562 177.041 36.9795 176.701 36.9795C176.368 36.9795 176.071 37.0562 175.811 37.2095C175.551 37.3562 175.348 37.5662 175.201 37.8395C175.054 38.1062 174.981 38.4129 174.981 38.7595V38.9195C174.981 39.2729 175.061 39.5895 175.221 39.8695C175.388 40.1429 175.618 40.3562 175.911 40.5095C176.204 40.6629 176.541 40.7395 176.921 40.7395C177.234 40.7395 177.518 40.6862 177.771 40.5795C178.031 40.4729 178.258 40.3129 178.451 40.0995L178.981 40.7195C178.741 40.9995 178.441 41.2129 178.081 41.3595C177.728 41.5062 177.331 41.5795 176.891 41.5795Z" fill="white"/>
<path d="M99.616 53.4195H95.066L94.198 55.5195H91.874L96.242 45.7195H98.482L102.864 55.5195H100.484L99.616 53.4195ZM98.902 51.6975L97.348 47.9455L95.794 51.6975H98.902ZM108.179 47.8755C108.879 47.8755 109.513 48.0389 110.083 48.3655C110.661 48.6829 111.114 49.1355 111.441 49.7235C111.767 50.3022 111.931 50.9789 111.931 51.7535C111.931 52.5282 111.767 53.2095 111.441 53.7975C111.114 54.3762 110.661 54.8289 110.083 55.1555C109.513 55.4729 108.879 55.6315 108.179 55.6315C107.217 55.6315 106.461 55.3282 105.911 54.7215V58.2355H103.727V47.9875H105.813V48.8555C106.354 48.2022 107.143 47.8755 108.179 47.8755ZM107.801 53.8395C108.361 53.8395 108.818 53.6529 109.173 53.2795C109.537 52.8969 109.719 52.3882 109.719 51.7535C109.719 51.1189 109.537 50.6149 109.173 50.2415C108.818 49.8589 108.361 49.6675 107.801 49.6675C107.241 49.6675 106.779 49.8589 106.415 50.2415C106.06 50.6149 105.883 51.1189 105.883 51.7535C105.883 52.3882 106.06 52.8969 106.415 53.2795C106.779 53.6529 107.241 53.8395 107.801 53.8395ZM117.845 47.8755C118.545 47.8755 119.179 48.0389 119.749 48.3655C120.327 48.6829 120.78 49.1355 121.107 49.7235C121.433 50.3022 121.597 50.9789 121.597 51.7535C121.597 52.5282 121.433 53.2095 121.107 53.7975C120.78 54.3762 120.327 54.8289 119.749 55.1555C119.179 55.4729 118.545 55.6315 117.845 55.6315C116.883 55.6315 116.127 55.3282 115.577 54.7215V58.2355H113.393V47.9875H115.479V48.8555C116.02 48.2022 116.809 47.8755 117.845 47.8755ZM117.467 53.8395C118.027 53.8395 118.484 53.6529 118.839 53.2795C119.203 52.8969 119.385 52.3882 119.385 51.7535C119.385 51.1189 119.203 50.6149 118.839 50.2415C118.484 49.8589 118.027 49.6675 117.467 49.6675C116.907 49.6675 116.445 49.8589 116.081 50.2415C115.726 50.6149 115.549 51.1189 115.549 51.7535C115.549 52.3882 115.726 52.8969 116.081 53.2795C116.445 53.6529 116.907 53.8395 117.467 53.8395ZM130.398 55.6875C129.623 55.6875 128.872 55.5849 128.144 55.3795C127.425 55.1649 126.846 54.8895 126.408 54.5535L127.178 52.8455C127.598 53.1535 128.097 53.4009 128.676 53.5875C129.254 53.7742 129.833 53.8675 130.412 53.8675C131.056 53.8675 131.532 53.7742 131.84 53.5875C132.148 53.3915 132.302 53.1349 132.302 52.8175C132.302 52.5842 132.208 52.3929 132.022 52.2435C131.844 52.0849 131.611 51.9589 131.322 51.8655C131.042 51.7722 130.659 51.6695 130.174 51.5575C129.427 51.3802 128.816 51.2029 128.34 51.0255C127.864 50.8482 127.453 50.5635 127.108 50.1715C126.772 49.7795 126.604 49.2569 126.604 48.6035C126.604 48.0342 126.758 47.5209 127.066 47.0635C127.374 46.5969 127.836 46.2282 128.452 45.9575C129.077 45.6869 129.838 45.5515 130.734 45.5515C131.359 45.5515 131.97 45.6262 132.568 45.7755C133.165 45.9249 133.688 46.1395 134.136 46.4195L133.436 48.1415C132.53 47.6282 131.625 47.3715 130.72 47.3715C130.085 47.3715 129.614 47.4742 129.306 47.6795C129.007 47.8849 128.858 48.1555 128.858 48.4915C128.858 48.8275 129.03 49.0795 129.376 49.2475C129.73 49.4062 130.267 49.5649 130.986 49.7235C131.732 49.9009 132.344 50.0782 132.82 50.2555C133.296 50.4329 133.702 50.7129 134.038 51.0955C134.383 51.4782 134.556 51.9962 134.556 52.6495C134.556 53.2095 134.397 53.7229 134.08 54.1895C133.772 54.6469 133.305 55.0109 132.68 55.2815C132.054 55.5522 131.294 55.6875 130.398 55.6875ZM140.809 55.1555C140.595 55.3142 140.329 55.4355 140.011 55.5195C139.703 55.5942 139.377 55.6315 139.031 55.6315C138.135 55.6315 137.44 55.4029 136.945 54.9455C136.46 54.4882 136.217 53.8162 136.217 52.9295V49.8355H135.055V48.1555H136.217V46.3215H138.401V48.1555H140.277V49.8355H138.401V52.9015C138.401 53.2189 138.481 53.4662 138.639 53.6435C138.807 53.8115 139.041 53.8955 139.339 53.8955C139.685 53.8955 139.979 53.8022 140.221 53.6155L140.809 55.1555ZM145.387 55.6315C144.594 55.6315 143.88 55.4682 143.245 55.1415C142.62 54.8055 142.13 54.3435 141.775 53.7555C141.42 53.1675 141.243 52.5002 141.243 51.7535C141.243 51.0069 141.42 50.3395 141.775 49.7515C142.13 49.1635 142.62 48.7062 143.245 48.3795C143.88 48.0435 144.594 47.8755 145.387 47.8755C146.18 47.8755 146.89 48.0435 147.515 48.3795C148.14 48.7062 148.63 49.1635 148.985 49.7515C149.34 50.3395 149.517 51.0069 149.517 51.7535C149.517 52.5002 149.34 53.1675 148.985 53.7555C148.63 54.3435 148.14 54.8055 147.515 55.1415C146.89 55.4682 146.18 55.6315 145.387 55.6315ZM145.387 53.8395C145.947 53.8395 146.404 53.6529 146.759 53.2795C147.123 52.8969 147.305 52.3882 147.305 51.7535C147.305 51.1189 147.123 50.6149 146.759 50.2415C146.404 49.8589 145.947 49.6675 145.387 49.6675C144.827 49.6675 144.365 49.8589 144.001 50.2415C143.637 50.6149 143.455 51.1189 143.455 51.7535C143.455 52.3882 143.637 52.8969 144.001 53.2795C144.365 53.6529 144.827 53.8395 145.387 53.8395ZM153.063 48.9815C153.324 48.6175 153.674 48.3422 154.113 48.1555C154.561 47.9689 155.074 47.8755 155.653 47.8755V49.8915C155.41 49.8729 155.247 49.8635 155.163 49.8635C154.537 49.8635 154.047 50.0409 153.693 50.3955C153.338 50.7409 153.161 51.2635 153.161 51.9635V55.5195H150.977V47.9875H153.063V48.9815ZM164.261 51.7815C164.261 51.8095 164.247 52.0055 164.219 52.3695H158.521C158.624 52.8362 158.866 53.2049 159.249 53.4755C159.632 53.7462 160.108 53.8815 160.677 53.8815C161.069 53.8815 161.414 53.8255 161.713 53.7135C162.021 53.5922 162.306 53.4055 162.567 53.1535L163.729 54.4135C163.02 55.2255 161.984 55.6315 160.621 55.6315C159.772 55.6315 159.02 55.4682 158.367 55.1415C157.714 54.8055 157.21 54.3435 156.855 53.7555C156.5 53.1675 156.323 52.5002 156.323 51.7535C156.323 51.0162 156.496 50.3535 156.841 49.7655C157.196 49.1682 157.676 48.7062 158.283 48.3795C158.899 48.0435 159.585 47.8755 160.341 47.8755C161.078 47.8755 161.746 48.0342 162.343 48.3515C162.94 48.6689 163.407 49.1262 163.743 49.7235C164.088 50.3115 164.261 50.9975 164.261 51.7815ZM160.355 49.5275C159.86 49.5275 159.445 49.6675 159.109 49.9475C158.773 50.2275 158.568 50.6102 158.493 51.0955H162.203C162.128 50.6195 161.923 50.2415 161.587 49.9615C161.251 49.6722 160.84 49.5275 160.355 49.5275Z" fill="white"/>
<defs>
<filter id="filter0_dddd_510_4377" x="0" y="0.519531" width="242" height="152" filterUnits="userSpaceOnUse" color-interpolation-filters="sRGB">
<feFlood flood-opacity="0" result="BackgroundImageFix"/>
<feColorMatrix in="SourceAlpha" type="matrix" values="0 0 0 0 0 0 0 0 0 0 0 0 0 0 0 0 0 0 127 0" result="hardAlpha"/>
<feOffset dy="1.4945"/>
<feGaussianBlur stdDeviation="1.15484"/>
<feColorMatrix type="matrix" values="0 0 0 0 0 0 0 0 0 0 0 0 0 0 0 0 0 0 0.0268173 0"/>
<feBlend mode="normal" in2="BackgroundImageFix" result="effect1_dropShadow_510_4377"/>
<feColorMatrix in="SourceAlpha" type="matrix" values="0 0 0 0 0 0 0 0 0 0 0 0 0 0 0 0 0 0 127 0" result="hardAlpha"/>
<feOffset dy="4.13211"/>
<feGaussianBlur stdDeviation="3.193"/>
<feColorMatrix type="matrix" values="0 0 0 0 0 0 0 0 0 0 0 0 0 0 0 0 0 0 0.0399899 0"/>
<feBlend mode="normal" in2="effect1_dropShadow_510_4377" result="effect2_dropShadow_510_4377"/>
<feColorMatrix in="SourceAlpha" type="matrix" values="0 0 0 0 0 0 0 0 0 0 0 0 0 0 0 0 0 0 127 0" result="hardAlpha"/>
<feOffset dy="9.94853"/>
<feGaussianBlur stdDeviation="7.6875"/>
<feColorMatrix type="matrix" values="0 0 0 0 0 0 0 0 0 0 0 0 0 0 0 0 0 0 0.0582218 0"/>
<feBlend mode="normal" in2="effect2_dropShadow_510_4377" result="effect3_dropShadow_510_4377"/>
<feColorMatrix in="SourceAlpha" type="matrix" values="0 0 0 0 0 0 0 0 0 0 0 0 0 0 0 0 0 0 127 0" result="hardAlpha"/>
<feOffset dy="33"/>
<feGaussianBlur stdDeviation="25.5"/>
<feColorMatrix type="matrix" values="0 0 0 0 0 0 0 0 0 0 0 0 0 0 0 0 0 0 0.08 0"/>
<feBlend mode="normal" in2="effect3_dropShadow_510_4377" result="effect4_dropShadow_510_4377"/>
<feBlend mode="normal" in="SourceGraphic" in2="effect4_dropShadow_510_4377" result="shape"/>
</filter>
</defs>
</svg>
