<svg width="670" height="681" viewBox="0 0 670 681" fill="none" xmlns="http://www.w3.org/2000/svg">
<g filter="url(#filter0_d_526_4281)">
<rect x="26.1641" y="23.3721" width="438.99" height="294.693" rx="39" fill="#F0D5B7"/>
</g>
<mask id="mask0_526_4281" style="mask-type:alpha" maskUnits="userSpaceOnUse" x="25" y="23" width="440" height="296">
<rect x="25.1465" y="23.3721" width="438.99" height="294.693" rx="39" fill="white"/>
</mask>
<g mask="url(#mask0_526_4281)">
<g opacity="0.3" filter="url(#filter1_d_526_4281)">
<circle cx="244.134" cy="170.21" r="291.136" transform="rotate(180 244.134 170.21)" fill="url(#paint0_linear_526_4281)" shape-rendering="crispEdges"/>
</g>
<circle opacity="0.35" cx="244.132" cy="170.21" r="179.356" transform="rotate(180 244.132 170.21)" fill="#FFD9AD"/>
<g opacity="0.3" filter="url(#filter2_d_526_4281)">
<circle cx="244.133" cy="170.21" r="149.887" transform="rotate(180 244.133 170.21)" fill="url(#paint1_linear_526_4281)" shape-rendering="crispEdges"/>
</g>
<g opacity="0.6" filter="url(#filter3_d_526_4281)">
<circle cx="244.134" cy="170.21" r="87.8997" fill="#FFF8EF"/>
</g>
<circle cx="244.133" cy="170.21" r="64.5275" fill="#FFF8EF"/>
<path d="M217.79 197.006V157.736L208.2 161.726V153.326L221.29 148.006H227.38V197.006H217.79ZM258.574 197.776C254.328 197.776 250.571 196.726 247.304 194.626C244.084 192.479 241.564 189.516 239.744 185.736C237.971 181.909 237.084 177.499 237.084 172.506C237.084 167.466 237.971 163.056 239.744 159.276C241.564 155.496 244.084 152.556 247.304 150.456C250.571 148.309 254.328 147.236 258.574 147.236C262.868 147.236 266.624 148.309 269.844 150.456C273.111 152.556 275.631 155.496 277.404 159.276C279.224 163.056 280.134 167.466 280.134 172.506C280.134 177.499 279.224 181.909 277.404 185.736C275.631 189.516 273.111 192.479 269.844 194.626C266.624 196.726 262.868 197.776 258.574 197.776ZM258.574 189.446C261.094 189.446 263.264 188.769 265.084 187.416C266.904 186.063 268.304 184.103 269.284 181.536C270.311 178.969 270.824 175.959 270.824 172.506C270.824 169.006 270.311 165.996 269.284 163.476C268.304 160.909 266.904 158.949 265.084 157.596C263.264 156.243 261.094 155.566 258.574 155.566C256.101 155.566 253.954 156.243 252.134 157.596C250.314 158.949 248.891 160.909 247.864 163.476C246.884 165.996 246.394 169.006 246.394 172.506C246.394 175.959 246.884 178.969 247.864 181.536C248.891 184.103 250.314 186.063 252.134 187.416C253.954 188.769 256.101 189.446 258.574 189.446Z" fill="#D67456"/>
</g>
<path d="M126.006 67.6309L134.07 48.0309H138.746L146.726 67.6309H142.33L140.342 62.4789H132.25L130.234 67.6309H126.006ZM133.51 59.2309H139.11L136.31 52.0069L133.51 59.2309ZM155.689 67.9109C154.252 67.9109 152.955 67.5842 151.797 66.9309C150.64 66.2589 149.725 65.3535 149.053 64.2149C148.381 63.0575 148.045 61.7695 148.045 60.3509C148.045 58.9135 148.381 57.6255 149.053 56.4869C149.725 55.3482 150.64 54.4429 151.797 53.7709C152.955 53.0989 154.252 52.7629 155.689 52.7629C156.847 52.7629 157.948 52.9869 158.993 53.4349C160.057 53.8829 160.972 54.5269 161.737 55.3669L159.385 57.8589C158.844 57.2615 158.275 56.8229 157.677 56.5429C157.099 56.2442 156.464 56.0949 155.773 56.0949C155.027 56.0949 154.355 56.2815 153.757 56.6549C153.179 57.0282 152.712 57.5322 152.357 58.1669C152.021 58.8015 151.853 59.5295 151.853 60.3509C151.853 61.1349 152.021 61.8535 152.357 62.5069C152.712 63.1415 153.197 63.6455 153.813 64.0189C154.429 64.3735 155.111 64.5509 155.857 64.5509C156.511 64.5509 157.117 64.4202 157.677 64.1589C158.256 63.8789 158.807 63.4682 159.329 62.9269L161.625 65.3349C160.879 66.1375 159.983 66.7722 158.937 67.2389C157.892 67.6869 156.809 67.9109 155.689 67.9109ZM172.209 67.8549C170.585 67.8549 169.353 67.4909 168.513 66.7629C167.692 66.0162 167.281 64.9335 167.281 63.5149V56.2349H164.285V53.0429H167.281V49.3189L171.117 48.4509V53.0429H175.289V56.2349H171.117V62.7309C171.117 63.4029 171.267 63.8882 171.565 64.1869C171.864 64.4669 172.387 64.6069 173.133 64.6069C173.507 64.6069 173.843 64.5882 174.141 64.5509C174.459 64.4949 174.804 64.4015 175.177 64.2709V67.4349C174.785 67.5655 174.291 67.6682 173.693 67.7429C173.115 67.8175 172.62 67.8549 172.209 67.8549ZM178.56 67.6309V53.0429H182.396V67.6309H178.56ZM180.464 51.3069C179.867 51.3069 179.354 51.0922 178.924 50.6629C178.495 50.2335 178.28 49.7202 178.28 49.1229C178.28 48.5069 178.495 47.9935 178.924 47.5829C179.354 47.1535 179.867 46.9389 180.464 46.9389C181.08 46.9389 181.594 47.1535 182.004 47.5829C182.434 47.9935 182.648 48.5069 182.648 49.1229C182.648 49.7202 182.434 50.2335 182.004 50.6629C181.594 51.0922 181.08 51.3069 180.464 51.3069ZM191.528 67.6309L185.284 53.0429H189.456L193.46 62.7589L197.436 53.0429H201.524L195.252 67.6309H191.528ZM211.168 67.9109C209.712 67.9109 208.387 67.5749 207.192 66.9029C206.016 66.2309 205.083 65.3255 204.392 64.1869C203.702 63.0482 203.356 61.7695 203.356 60.3509C203.356 58.9322 203.683 57.6535 204.336 56.5149C205.008 55.3762 205.914 54.4709 207.052 53.7989C208.191 53.1269 209.46 52.7909 210.86 52.7909C212.26 52.7909 213.502 53.1362 214.584 53.8269C215.667 54.5175 216.516 55.4509 217.132 56.6269C217.767 57.8029 218.084 59.1375 218.084 60.6309V61.6389H207.276C207.444 62.2175 207.715 62.7402 208.088 63.2069C208.48 63.6735 208.956 64.0375 209.516 64.2989C210.095 64.5602 210.711 64.6909 211.364 64.6909C212.018 64.6909 212.615 64.5882 213.156 64.3829C213.716 64.1775 214.192 63.8882 214.584 63.5149L217.104 65.8109C216.208 66.5389 215.284 67.0709 214.332 67.4069C213.399 67.7429 212.344 67.9109 211.168 67.9109ZM207.22 58.8949H214.304C214.174 58.3162 213.931 57.8122 213.576 57.3829C213.24 56.9349 212.83 56.5895 212.344 56.3469C211.878 56.0855 211.355 55.9549 210.776 55.9549C210.179 55.9549 209.638 56.0762 209.152 56.3189C208.667 56.5615 208.256 56.9069 207.92 57.3549C207.603 57.7842 207.37 58.2975 207.22 58.8949ZM229.119 67.6309V48.0309H233.179V64.0469H243.903V67.6309H229.119ZM247.85 67.6309V53.0429H251.686V67.6309H247.85ZM249.754 51.3069C249.156 51.3069 248.643 51.0922 248.214 50.6629C247.784 50.2335 247.57 49.7202 247.57 49.1229C247.57 48.5069 247.784 47.9935 248.214 47.5829C248.643 47.1535 249.156 46.9389 249.754 46.9389C250.37 46.9389 250.883 47.1535 251.294 47.5829C251.723 47.9935 251.938 48.5069 251.938 49.1229C251.938 49.7202 251.723 50.2335 251.294 50.6629C250.883 51.0922 250.37 51.3069 249.754 51.3069ZM261.545 67.9109C260.201 67.9109 258.96 67.7429 257.821 67.4069C256.683 67.0522 255.693 66.5482 254.853 65.8949L256.757 63.3469C257.597 63.9069 258.4 64.3269 259.165 64.6069C259.949 64.8869 260.724 65.0269 261.489 65.0269C262.348 65.0269 263.029 64.8869 263.533 64.6069C264.056 64.3082 264.317 63.9255 264.317 63.4589C264.317 63.0855 264.168 62.7869 263.869 62.5629C263.589 62.3389 263.132 62.1802 262.497 62.0869L259.697 61.6669C258.241 61.4429 257.14 60.9762 256.393 60.2669C255.647 59.5389 255.273 58.5869 255.273 57.4109C255.273 56.4589 255.516 55.6469 256.001 54.9749C256.505 54.2842 257.205 53.7522 258.101 53.3789C259.016 52.9869 260.099 52.7909 261.349 52.7909C262.413 52.7909 263.449 52.9402 264.457 53.2389C265.484 53.5375 266.445 53.9949 267.341 54.6109L265.493 57.1029C264.691 56.5989 263.925 56.2349 263.197 56.0109C262.469 55.7869 261.732 55.6749 260.985 55.6749C260.295 55.6749 259.735 55.8055 259.305 56.0669C258.895 56.3282 258.689 56.6735 258.689 57.1029C258.689 57.4949 258.839 57.8029 259.137 58.0269C259.436 58.2509 259.949 58.4095 260.677 58.5029L263.449 58.9229C264.905 59.1282 266.016 59.5949 266.781 60.3229C267.547 61.0322 267.929 61.9562 267.929 63.0949C267.929 64.0282 267.649 64.8589 267.089 65.5869C266.529 66.2962 265.773 66.8655 264.821 67.2949C263.869 67.7055 262.777 67.9109 261.545 67.9109ZM277.882 67.8549C276.258 67.8549 275.026 67.4909 274.186 66.7629C273.365 66.0162 272.954 64.9335 272.954 63.5149V56.2349H269.958V53.0429H272.954V49.3189L276.79 48.4509V53.0429H280.962V56.2349H276.79V62.7309C276.79 63.4029 276.939 63.8882 277.238 64.1869C277.537 64.4669 278.059 64.6069 278.806 64.6069C279.179 64.6069 279.515 64.5882 279.814 64.5509C280.131 64.4949 280.477 64.4015 280.85 64.2709V67.4349C280.458 67.5655 279.963 67.6682 279.366 67.7429C278.787 67.8175 278.293 67.8549 277.882 67.8549ZM291.209 67.9109C289.753 67.9109 288.428 67.5749 287.233 66.9029C286.057 66.2309 285.124 65.3255 284.433 64.1869C283.742 63.0482 283.397 61.7695 283.397 60.3509C283.397 58.9322 283.724 57.6535 284.377 56.5149C285.049 55.3762 285.954 54.4709 287.093 53.7989C288.232 53.1269 289.501 52.7909 290.901 52.7909C292.301 52.7909 293.542 53.1362 294.625 53.8269C295.708 54.5175 296.557 55.4509 297.173 56.6269C297.808 57.8029 298.125 59.1375 298.125 60.6309V61.6389H287.317C287.485 62.2175 287.756 62.7402 288.129 63.2069C288.521 63.6735 288.997 64.0375 289.557 64.2989C290.136 64.5602 290.752 64.6909 291.405 64.6909C292.058 64.6909 292.656 64.5882 293.197 64.3829C293.757 64.1775 294.233 63.8882 294.625 63.5149L297.145 65.8109C296.249 66.5389 295.325 67.0709 294.373 67.4069C293.44 67.7429 292.385 67.9109 291.209 67.9109ZM287.261 58.8949H294.345C294.214 58.3162 293.972 57.8122 293.617 57.3829C293.281 56.9349 292.87 56.5895 292.385 56.3469C291.918 56.0855 291.396 55.9549 290.817 55.9549C290.22 55.9549 289.678 56.0762 289.193 56.3189C288.708 56.5615 288.297 56.9069 287.961 57.3549C287.644 57.7842 287.41 58.2975 287.261 58.8949ZM301.875 67.6309V53.0429H305.711V54.2469C306.813 53.2575 308.175 52.7629 309.799 52.7629C310.938 52.7629 311.937 53.0149 312.795 53.5189C313.673 54.0042 314.354 54.6855 314.839 55.5629C315.325 56.4215 315.567 57.4295 315.567 58.5869V67.6309H311.731V59.1469C311.731 58.1949 311.461 57.4482 310.919 56.9069C310.378 56.3469 309.641 56.0669 308.707 56.0669C308.054 56.0669 307.475 56.1975 306.971 56.4589C306.467 56.7015 306.047 57.0562 305.711 57.5229V67.6309H301.875ZM319.873 67.6309V53.0429H323.709V67.6309H319.873ZM321.777 51.3069C321.18 51.3069 320.666 51.0922 320.237 50.6629C319.808 50.2335 319.593 49.7202 319.593 49.1229C319.593 48.5069 319.808 47.9935 320.237 47.5829C320.666 47.1535 321.18 46.9389 321.777 46.9389C322.393 46.9389 322.906 47.1535 323.317 47.5829C323.746 47.9935 323.961 48.5069 323.961 49.1229C323.961 49.7202 323.746 50.2335 323.317 50.6629C322.906 51.0922 322.393 51.3069 321.777 51.3069ZM328.109 67.6309V53.0429H331.945V54.2469C333.046 53.2575 334.409 52.7629 336.033 52.7629C337.172 52.7629 338.17 53.0149 339.029 53.5189C339.906 54.0042 340.588 54.6855 341.073 55.5629C341.558 56.4215 341.801 57.4295 341.801 58.5869V67.6309H337.965V59.1469C337.965 58.1949 337.694 57.4482 337.153 56.9069C336.612 56.3469 335.874 56.0669 334.941 56.0669C334.288 56.0669 333.709 56.1975 333.205 56.4589C332.701 56.7015 332.281 57.0562 331.945 57.5229V67.6309H328.109ZM353.443 73.6229C352.323 73.6229 351.24 73.5015 350.195 73.2589C349.149 73.0349 348.207 72.7082 347.367 72.2789L348.711 69.3109C349.513 69.7029 350.297 69.9922 351.063 70.1789C351.828 70.3655 352.593 70.4589 353.359 70.4589C354.497 70.4589 355.356 70.2162 355.935 69.7309C356.532 69.2455 356.831 68.5175 356.831 67.5469V66.3989C355.636 67.2762 354.301 67.7149 352.827 67.7149C351.445 67.7149 350.195 67.3882 349.075 66.7349C347.973 66.0629 347.087 65.1575 346.415 64.0189C345.761 62.8802 345.435 61.6202 345.435 60.2389C345.435 58.8575 345.761 57.6069 346.415 56.4869C347.087 55.3669 347.992 54.4802 349.131 53.8269C350.269 53.1549 351.539 52.8189 352.939 52.8189C353.648 52.8189 354.339 52.9215 355.011 53.1269C355.683 53.3322 356.308 53.6215 356.887 53.9949V53.0429H360.667V67.6029C360.667 69.5255 360.041 71.0095 358.791 72.0549C357.559 73.1002 355.776 73.6229 353.443 73.6229ZM353.415 64.4669C354.124 64.4669 354.768 64.3549 355.347 64.1309C355.925 63.8882 356.42 63.5522 356.831 63.1229V57.4109C356.42 57.0002 355.916 56.6829 355.319 56.4589C354.74 56.2162 354.115 56.0949 353.443 56.0949C352.64 56.0949 351.921 56.2815 351.287 56.6549C350.652 57.0095 350.148 57.5042 349.775 58.1389C349.401 58.7549 349.215 59.4549 349.215 60.2389C349.215 61.0415 349.392 61.7602 349.747 62.3949C350.12 63.0295 350.624 63.5335 351.259 63.9069C351.912 64.2802 352.631 64.4669 353.415 64.4669Z" fill="#C34424"/>
<g filter="url(#filter4_d_526_4281)">
<rect x="284.271" y="210.35" width="359.728" height="358.712" rx="39" fill="#F65435"/>
</g>
<g filter="url(#filter5_d_526_4281)">
<circle cx="467.184" cy="39.6311" r="39.6311" fill="url(#paint2_radial_526_4281)"/>
</g>
<path d="M473.316 40.6777C473.316 42.7316 470.519 45.0137 467.069 45.0137C463.619 45.0137 460.822 42.7316 460.822 40.6777C460.822 38.6238 462.264 42.5674 467.069 42.5674C471.394 42.5674 473.316 38.6237 473.316 40.6777Z" fill="#C34424"/>
<path d="M461.801 29.142C461.801 31.9401 456.982 35.0491 451.037 35.0491C445.093 35.0491 440.273 31.94 440.273 29.142C440.273 26.344 442.179 32.2958 451.037 32.1312C460.093 32.1312 461.801 26.3439 461.801 29.142Z" fill="#C34424"/>
<path d="M494.094 29.142C494.094 31.9401 489.275 35.0491 483.33 35.0491C477.386 35.0491 472.566 31.94 472.566 29.142C472.566 26.344 474.472 32.2958 483.33 32.1312C492.386 32.1312 494.094 26.3439 494.094 29.142Z" fill="#C34424"/>
<mask id="mask1_526_4281" style="mask-type:alpha" maskUnits="userSpaceOnUse" x="284" y="210" width="361" height="360">
<rect x="284.273" y="210.35" width="359.728" height="358.712" rx="39" fill="#F65435"/>
</mask>
<g mask="url(#mask1_526_4281)">
<path d="M642.805 393.382C642.805 428.439 641.535 456.862 641.535 456.862C641.535 456.862 640.265 428.445 640.265 393.382C640.265 358.319 641.535 329.902 641.535 329.902C641.535 329.902 642.805 358.319 642.805 393.382Z" fill="white"/>
<path d="M635.014 395.976C635.014 423.86 633.744 446.466 633.744 446.466C633.744 446.466 632.474 423.86 632.474 395.976C632.474 368.091 633.744 345.486 633.744 345.486C633.744 345.486 635.014 368.091 635.014 395.976Z" fill="white"/>
<path d="M627.223 399.063C627.223 419.82 625.953 436.646 625.953 436.646C625.953 436.646 624.683 419.82 624.683 399.063C624.683 378.307 625.953 361.48 625.953 361.48C625.953 361.48 627.223 378.307 627.223 399.063Z" fill="white"/>
<path d="M619.436 402.255C619.436 416.749 618.165 428.496 618.165 428.496C618.165 428.496 616.895 416.749 616.895 402.255C616.895 387.76 618.165 376.013 618.165 376.013C618.165 376.013 619.436 387.76 619.436 402.255Z" fill="white"/>
<path d="M611.643 404.924C611.643 414.595 610.373 422.428 610.373 422.428C610.373 422.428 609.102 414.589 609.102 404.924C609.102 395.259 610.373 387.421 610.373 387.421C610.373 387.421 611.643 395.259 611.643 404.924Z" fill="white"/>
<path d="M603.85 407.683C603.85 413.668 602.58 418.525 602.58 418.525C602.58 418.525 601.31 413.673 601.31 407.683C601.31 401.694 602.58 396.842 602.58 396.842C602.58 396.842 603.85 401.694 603.85 407.683Z" fill="white"/>
<path d="M596.064 409.493C596.064 413.051 594.794 415.933 594.794 415.933C594.794 415.933 593.524 413.051 593.524 409.493C593.524 405.935 594.794 403.053 594.794 403.053C594.794 403.053 596.064 405.935 596.064 409.493Z" fill="white"/>
<path d="M588.271 412.058C588.271 414.195 587.001 415.933 587.001 415.933C587.001 415.933 585.731 414.201 585.731 412.058C585.731 409.915 587.001 408.183 587.001 408.183C587.001 408.183 588.271 409.915 588.271 412.058Z" fill="white"/>
<path d="M580.479 417.925C580.479 419.63 579.208 421.018 579.208 421.018C579.208 421.018 577.938 419.635 577.938 417.925C577.938 416.216 579.208 414.833 579.208 414.833C579.208 414.833 580.479 416.216 580.479 417.925Z" fill="white"/>
<path d="M572.691 422.854C572.691 425.247 571.421 427.185 571.421 427.185C571.421 427.185 570.151 425.247 570.151 422.854C570.151 420.462 571.421 418.524 571.421 418.524C571.421 418.524 572.691 420.462 572.691 422.854Z" fill="white"/>
<path d="M564.9 428.496C564.9 432.371 563.63 435.513 563.63 435.513C563.63 435.513 562.36 432.371 562.36 428.496C562.36 424.621 563.63 421.479 563.63 421.479C563.63 421.479 564.9 424.621 564.9 428.496Z" fill="white"/>
<path d="M557.107 433.275C557.107 440.031 555.837 445.505 555.837 445.505C555.837 445.505 554.567 440.031 554.567 433.275C554.567 426.519 555.837 421.045 555.837 421.045C555.837 421.045 557.107 426.519 557.107 433.275Z" fill="white"/>
<path d="M549.32 438.317C549.32 449.247 548.05 458.107 548.05 458.107C548.05 458.107 546.78 449.247 546.78 438.317C546.78 427.386 548.05 418.526 548.05 418.526C548.05 418.526 549.32 427.386 549.32 438.317Z" fill="white"/>
<path d="M541.529 441.247C541.529 454.126 540.259 464.568 540.259 464.568C540.259 464.568 538.989 454.126 538.989 441.247C538.989 428.368 540.259 417.925 540.259 417.925C540.259 417.925 541.529 428.368 541.529 441.247Z" fill="white"/>
<path d="M533.736 449.691C533.736 469.331 532.466 485.253 532.466 485.253C532.466 485.253 531.196 469.331 531.196 449.691C531.196 430.05 532.466 414.128 532.466 414.128C532.466 414.128 533.736 430.05 533.736 449.691Z" fill="white"/>
<path d="M525.943 458.362C525.943 486.247 524.673 508.853 524.673 508.853C524.673 508.853 523.403 486.247 523.403 458.362C523.403 430.478 524.673 407.872 524.673 407.872C524.673 407.872 525.943 430.478 525.943 458.362Z" fill="white"/>
<path d="M518.156 466.106C518.156 500.181 516.886 527.799 516.886 527.799C516.886 527.799 515.616 500.175 515.616 466.106C515.616 432.037 516.886 404.413 516.886 404.413C516.886 404.413 518.156 432.037 518.156 466.106Z" fill="white"/>
<path d="M510.365 471.048C510.365 511.295 509.095 543.921 509.095 543.921C509.095 543.921 507.825 511.295 507.825 471.048C507.825 430.8 509.095 398.174 509.095 398.174C509.095 398.174 510.365 430.8 510.365 471.048Z" fill="white"/>
<path d="M502.572 471.364C502.572 517.874 501.302 555.579 501.302 555.579C501.302 555.579 500.032 517.874 500.032 471.364C500.032 424.854 501.302 387.149 501.302 387.149C501.302 387.149 502.572 424.854 502.572 471.364Z" fill="white"/>
<path d="M494.785 469.287C494.785 520.904 493.515 562.745 493.515 562.745C493.515 562.745 492.245 520.904 492.245 469.287C492.245 417.67 493.515 375.829 493.515 375.829C493.515 375.829 494.785 417.67 494.785 469.287Z" fill="white"/>
<path d="M486.992 463.316C486.992 520.945 485.722 567.66 485.722 567.66C485.722 567.66 484.452 520.945 484.452 463.316C484.452 405.687 485.722 358.971 485.722 358.971C485.722 358.971 486.992 405.687 486.992 463.316Z" fill="white"/>
<path d="M479.201 458.101C479.201 519.35 477.931 569.002 477.931 569.002C477.931 569.002 476.661 519.35 476.661 458.101C476.661 396.853 477.931 347.201 477.931 347.201C477.931 347.201 479.201 396.853 479.201 458.101Z" fill="white"/>
<path d="M471.414 452.183C471.414 516.274 470.144 568.229 470.144 568.229C470.144 568.229 468.874 516.274 468.874 452.183C468.874 388.092 470.144 336.136 470.144 336.136C470.144 336.136 471.414 388.092 471.414 452.183Z" fill="white"/>
<path d="M463.621 446.549C463.621 511.767 462.351 564.633 462.351 564.633C462.351 564.633 461.081 511.767 461.081 446.549C461.081 381.331 462.351 328.465 462.351 328.465C462.351 328.465 463.621 381.331 463.621 446.549Z" fill="white"/>
<path d="M455.83 440.88C455.83 505.532 454.56 557.938 454.56 557.938C454.56 557.938 453.29 505.527 453.29 440.88C453.29 376.234 454.56 323.823 454.56 323.823C454.56 323.823 455.83 376.234 455.83 440.88Z" fill="white"/>
<path d="M448.043 434.497C448.043 496.822 446.773 547.346 446.773 547.346C446.773 547.346 445.503 496.822 445.503 434.497C445.503 372.171 446.773 321.647 446.773 321.647C446.773 321.647 448.043 372.171 448.043 434.497Z" fill="white"/>
<path d="M440.25 426.903C440.25 485.154 438.98 532.374 438.98 532.374C438.98 532.374 437.71 485.154 437.71 426.903C437.71 368.652 438.98 321.431 438.98 321.431C438.98 321.431 440.25 368.652 440.25 426.903Z" fill="white"/>
<path d="M432.459 418.148C432.459 470.647 431.189 513.21 431.189 513.21C431.189 513.21 429.919 470.653 429.919 418.148C429.919 365.642 431.189 323.085 431.189 323.085C431.189 323.085 432.459 365.642 432.459 418.148Z" fill="white"/>
<path d="M424.672 409.109C424.672 454.414 423.402 491.143 423.402 491.143C423.402 491.143 422.132 454.414 422.132 409.109C422.132 363.804 423.402 327.076 423.402 327.076C423.402 327.076 424.672 363.804 424.672 409.109Z" fill="white"/>
<path d="M416.881 401.565C416.881 438.904 415.611 469.176 415.611 469.176C415.611 469.176 414.341 438.904 414.341 401.565C414.341 364.226 415.611 333.954 415.611 333.954C415.611 333.954 416.881 364.226 416.881 401.565Z" fill="white"/>
<path d="M409.088 397.164C409.088 426.414 407.818 450.13 407.818 450.13C407.818 450.13 406.548 426.414 406.548 397.164C406.548 367.913 407.818 344.198 407.818 344.198C407.818 344.198 409.088 367.913 409.088 397.164Z" fill="white"/>
<path d="M401.301 396.536C401.301 418.059 400.031 435.513 400.031 435.513C400.031 435.513 398.761 418.065 398.761 396.536C398.761 375.008 400.031 357.56 400.031 357.56C400.031 357.56 401.301 375.008 401.301 396.536Z" fill="white"/>
<path d="M393.508 397.94C393.508 413.007 392.238 425.22 392.238 425.22C392.238 425.22 390.968 413.007 390.968 397.94C390.968 382.874 392.238 370.66 392.238 370.66C392.238 370.66 393.508 382.874 393.508 397.94Z" fill="white"/>
<path d="M385.715 399.262C385.715 410.021 384.445 418.742 384.445 418.742C384.445 418.742 383.175 410.021 383.175 399.262C383.175 388.504 384.445 379.782 384.445 379.782C384.445 379.782 385.715 388.504 385.715 399.262Z" fill="white"/>
<path d="M377.93 401.35C377.93 409.194 376.66 415.551 376.66 415.551C376.66 415.551 375.39 409.194 375.39 401.35C375.39 393.506 376.66 387.15 376.66 387.15C376.66 387.15 377.93 393.506 377.93 401.35Z" fill="white"/>
<path d="M370.137 401.216C370.137 406.063 368.867 409.993 368.867 409.993C368.867 409.993 367.597 406.063 367.597 401.216C367.597 396.37 368.867 392.44 368.867 392.44C368.867 392.44 370.137 396.37 370.137 401.216Z" fill="white"/>
<path d="M362.344 401.527C362.344 405.075 361.074 407.95 361.074 407.95C361.074 407.95 359.804 405.075 359.804 401.527C359.804 397.98 361.074 395.104 361.074 395.104C361.074 395.104 362.344 397.98 362.344 401.527Z" fill="white"/>
<path d="M354.553 403.803C354.553 406.096 353.283 407.95 353.283 407.95C353.283 407.95 352.013 406.09 352.013 403.803C352.013 401.516 353.283 399.656 353.283 399.656C353.283 399.656 354.553 401.516 354.553 403.803Z" fill="white"/>
<path d="M346.766 406.074C346.766 409.394 345.496 412.086 345.496 412.086C345.496 412.086 344.226 409.394 344.226 406.074C344.226 402.754 345.496 400.062 345.496 400.062C345.496 400.062 346.766 402.754 346.766 406.074Z" fill="white"/>
<path d="M338.973 407.95C338.973 413.323 337.703 417.676 337.703 417.676C337.703 417.676 336.433 413.323 336.433 407.95C336.433 402.576 337.703 398.224 337.703 398.224C337.703 398.224 338.973 402.576 338.973 407.95Z" fill="white"/>
<path d="M331.182 409.993C331.182 418.215 329.912 424.882 329.912 424.882C329.912 424.882 328.642 418.215 328.642 409.993C328.642 401.771 329.912 395.104 329.912 395.104C329.912 395.104 331.182 401.771 331.182 409.993Z" fill="white"/>
<path d="M323.395 411.975C323.395 424.626 322.124 434.88 322.124 434.88C322.124 434.88 320.854 424.626 320.854 411.975C320.854 399.323 322.124 389.07 322.124 389.07C322.124 389.07 323.395 399.323 323.395 411.975Z" fill="white"/>
<path d="M315.604 414.395C315.604 432.243 314.333 446.716 314.333 446.716C314.333 446.716 313.063 432.243 313.063 414.395C313.063 396.548 314.333 382.075 314.333 382.075C314.333 382.075 315.604 396.548 315.604 414.395Z" fill="white"/>
<path d="M307.809 418.741C307.809 442.268 306.539 461.337 306.539 461.337C306.539 461.337 305.268 442.262 305.268 418.741C305.268 395.22 306.539 376.145 306.539 376.145C306.539 376.145 307.809 395.214 307.809 418.741Z" fill="white"/>
<path d="M300.023 420.196C300.023 448.936 298.753 472.235 298.753 472.235C298.753 472.235 297.483 448.936 297.483 420.196C297.483 391.457 298.753 368.157 298.753 368.157C298.753 368.157 300.023 391.457 300.023 420.196Z" fill="white"/>
<path d="M292.232 417.936C292.232 451.312 290.962 478.369 290.962 478.369C290.962 478.369 289.692 451.312 289.692 417.936C289.692 384.561 290.962 357.504 290.962 357.504C290.962 357.504 292.232 384.561 292.232 417.936Z" fill="white"/>
<path d="M284.439 416.289C284.439 452.878 283.169 482.539 283.169 482.539C283.169 482.539 281.899 452.878 281.899 416.289C281.899 379.699 283.169 350.038 283.169 350.038C283.169 350.038 284.439 379.699 284.439 416.289Z" fill="white"/>
<path d="M326.594 272.899V253.299H330.654V261.195H339.67V253.299H343.73V272.899H339.67V264.863H330.654V272.899H326.594ZM348.441 272.899V258.311H352.277V272.899H348.441ZM350.345 256.575C349.748 256.575 349.235 256.361 348.805 255.931C348.376 255.502 348.161 254.989 348.161 254.391C348.161 253.775 348.376 253.262 348.805 252.851C349.235 252.422 349.748 252.207 350.345 252.207C350.961 252.207 351.475 252.422 351.885 252.851C352.315 253.262 352.529 253.775 352.529 254.391C352.529 254.989 352.315 255.502 351.885 255.931C351.475 256.361 350.961 256.575 350.345 256.575ZM370.598 273.179C368.638 273.179 366.977 272.685 365.614 271.695C364.251 270.706 363.271 269.287 362.674 267.439L366.426 266.011C366.837 267.206 367.378 268.083 368.05 268.643C368.741 269.203 369.59 269.483 370.598 269.483C371.811 269.483 372.782 269.091 373.51 268.307C374.257 267.523 374.63 266.478 374.63 265.171V253.299H378.69V265.283C378.69 266.87 378.354 268.261 377.682 269.455C377.01 270.631 376.067 271.546 374.854 272.199C373.641 272.853 372.222 273.179 370.598 273.179ZM390.16 273.179C388.704 273.179 387.388 272.843 386.212 272.171C385.036 271.499 384.102 270.594 383.412 269.455C382.721 268.317 382.376 267.038 382.376 265.619C382.376 264.201 382.712 262.922 383.384 261.783C384.074 260.626 385.008 259.711 386.184 259.039C387.378 258.367 388.704 258.031 390.16 258.031C391.616 258.031 392.932 258.367 394.108 259.039C395.302 259.711 396.236 260.626 396.908 261.783C397.598 262.922 397.944 264.201 397.944 265.619C397.944 267.038 397.598 268.317 396.908 269.455C396.236 270.594 395.312 271.499 394.136 272.171C392.96 272.843 391.634 273.179 390.16 273.179ZM390.16 269.847C390.925 269.847 391.606 269.661 392.204 269.287C392.82 268.914 393.305 268.41 393.66 267.775C394.033 267.122 394.22 266.403 394.22 265.619C394.22 264.817 394.033 264.098 393.66 263.463C393.305 262.829 392.82 262.325 392.204 261.951C391.606 261.559 390.925 261.363 390.16 261.363C389.413 261.363 388.732 261.559 388.116 261.951C387.5 262.325 387.014 262.829 386.66 263.463C386.305 264.098 386.128 264.817 386.128 265.619C386.128 266.403 386.305 267.122 386.66 267.775C387.014 268.41 387.5 268.914 388.116 269.287C388.732 269.661 389.413 269.847 390.16 269.847ZM401.701 272.899V253.299L405.537 252.459V259.515C406.639 258.526 408.001 258.031 409.625 258.031C410.764 258.031 411.763 258.283 412.621 258.787C413.499 259.273 414.18 259.954 414.665 260.831C415.151 261.69 415.393 262.698 415.393 263.855V272.899H411.557V264.415C411.557 263.463 411.287 262.717 410.745 262.175C410.204 261.615 409.467 261.335 408.533 261.335C407.88 261.335 407.301 261.466 406.797 261.727C406.293 261.97 405.873 262.325 405.537 262.791V272.899H401.701ZM419.699 272.899V258.311H423.535V259.515C424.636 258.526 425.999 258.031 427.623 258.031C428.762 258.031 429.76 258.283 430.619 258.787C431.496 259.273 432.178 259.954 432.663 260.831C433.148 261.69 433.391 262.698 433.391 263.855V272.899H429.555V264.415C429.555 263.463 429.284 262.717 428.743 262.175C428.202 261.615 427.464 261.335 426.531 261.335C425.878 261.335 425.299 261.466 424.795 261.727C424.291 261.97 423.871 262.325 423.535 262.791V272.899H419.699ZM436.269 277.127L438.173 269.763H442.149L439.153 277.127H436.269ZM453.13 272.899V258.311H456.966V272.899H453.13ZM455.034 256.575C454.436 256.575 453.923 256.361 453.494 255.931C453.064 255.502 452.85 254.989 452.85 254.391C452.85 253.775 453.064 253.262 453.494 252.851C453.923 252.422 454.436 252.207 455.034 252.207C455.65 252.207 456.163 252.422 456.574 252.851C457.003 253.262 457.218 253.775 457.218 254.391C457.218 254.989 457.003 255.502 456.574 255.931C456.163 256.361 455.65 256.575 455.034 256.575ZM468.282 273.123C466.658 273.123 465.426 272.759 464.586 272.031C463.764 271.285 463.354 270.202 463.354 268.783V261.503H460.358V258.311H463.354V254.587L467.19 253.719V258.311H471.362V261.503H467.19V267.999C467.19 268.671 467.339 269.157 467.638 269.455C467.936 269.735 468.459 269.875 469.206 269.875C469.579 269.875 469.915 269.857 470.214 269.819C470.531 269.763 470.876 269.67 471.25 269.539V272.703C470.858 272.834 470.363 272.937 469.766 273.011C469.187 273.086 468.692 273.123 468.282 273.123ZM474.364 259.515L476.268 252.151H480.244L477.248 259.515H474.364ZM488.493 273.179C487.149 273.179 485.907 273.011 484.769 272.675C483.63 272.321 482.641 271.817 481.801 271.163L483.705 268.615C484.545 269.175 485.347 269.595 486.113 269.875C486.897 270.155 487.671 270.295 488.437 270.295C489.295 270.295 489.977 270.155 490.481 269.875C491.003 269.577 491.265 269.194 491.265 268.727C491.265 268.354 491.115 268.055 490.817 267.831C490.537 267.607 490.079 267.449 489.445 267.355L486.645 266.935C485.189 266.711 484.087 266.245 483.341 265.535C482.594 264.807 482.221 263.855 482.221 262.679C482.221 261.727 482.463 260.915 482.949 260.243C483.453 259.553 484.153 259.021 485.049 258.647C485.963 258.255 487.046 258.059 488.297 258.059C489.361 258.059 490.397 258.209 491.405 258.507C492.431 258.806 493.393 259.263 494.289 259.879L492.441 262.371C491.638 261.867 490.873 261.503 490.145 261.279C489.417 261.055 488.679 260.943 487.933 260.943C487.242 260.943 486.682 261.074 486.253 261.335C485.842 261.597 485.637 261.942 485.637 262.371C485.637 262.763 485.786 263.071 486.085 263.295C486.383 263.519 486.897 263.678 487.625 263.771L490.397 264.191C491.853 264.397 492.963 264.863 493.729 265.591C494.494 266.301 494.877 267.225 494.877 268.363C494.877 269.297 494.597 270.127 494.037 270.855C493.477 271.565 492.721 272.134 491.769 272.563C490.817 272.974 489.725 273.179 488.493 273.179ZM505.219 272.899V258.311H509.055V259.515C510.157 258.526 511.519 258.031 513.143 258.031C514.282 258.031 515.281 258.283 516.139 258.787C517.017 259.273 517.698 259.954 518.183 260.831C518.669 261.69 518.911 262.698 518.911 263.855V272.899H515.075V264.415C515.075 263.463 514.805 262.717 514.263 262.175C513.722 261.615 512.985 261.335 512.051 261.335C511.398 261.335 510.819 261.466 510.315 261.727C509.811 261.97 509.391 262.325 509.055 262.791V272.899H505.219ZM523.217 272.899V258.311H527.053V272.899H523.217ZM525.121 256.575C524.524 256.575 524.01 256.361 523.581 255.931C523.152 255.502 522.937 254.989 522.937 254.391C522.937 253.775 523.152 253.262 523.581 252.851C524.01 252.422 524.524 252.207 525.121 252.207C525.737 252.207 526.25 252.422 526.661 252.851C527.09 253.262 527.305 253.775 527.305 254.391C527.305 254.989 527.09 255.502 526.661 255.931C526.25 256.361 525.737 256.575 525.121 256.575ZM538.425 273.179C536.988 273.179 535.69 272.853 534.533 272.199C533.376 271.527 532.461 270.622 531.789 269.483C531.117 268.326 530.781 267.038 530.781 265.619C530.781 264.182 531.117 262.894 531.789 261.755C532.461 260.617 533.376 259.711 534.533 259.039C535.69 258.367 536.988 258.031 538.425 258.031C539.582 258.031 540.684 258.255 541.729 258.703C542.793 259.151 543.708 259.795 544.473 260.635L542.121 263.127C541.58 262.53 541.01 262.091 540.413 261.811C539.834 261.513 539.2 261.363 538.509 261.363C537.762 261.363 537.09 261.55 536.493 261.923C535.914 262.297 535.448 262.801 535.093 263.435C534.757 264.07 534.589 264.798 534.589 265.619C534.589 266.403 534.757 267.122 535.093 267.775C535.448 268.41 535.933 268.914 536.549 269.287C537.165 269.642 537.846 269.819 538.593 269.819C539.246 269.819 539.853 269.689 540.413 269.427C540.992 269.147 541.542 268.737 542.065 268.195L544.361 270.603C543.614 271.406 542.718 272.041 541.673 272.507C540.628 272.955 539.545 273.179 538.425 273.179ZM554.485 273.179C553.029 273.179 551.704 272.843 550.509 272.171C549.333 271.499 548.4 270.594 547.709 269.455C547.019 268.317 546.673 267.038 546.673 265.619C546.673 264.201 547 262.922 547.653 261.783C548.325 260.645 549.231 259.739 550.369 259.067C551.508 258.395 552.777 258.059 554.177 258.059C555.577 258.059 556.819 258.405 557.901 259.095C558.984 259.786 559.833 260.719 560.449 261.895C561.084 263.071 561.401 264.406 561.401 265.899V266.907H550.593C550.761 267.486 551.032 268.009 551.405 268.475C551.797 268.942 552.273 269.306 552.833 269.567C553.412 269.829 554.028 269.959 554.681 269.959C555.335 269.959 555.932 269.857 556.473 269.651C557.033 269.446 557.509 269.157 557.901 268.783L560.421 271.079C559.525 271.807 558.601 272.339 557.649 272.675C556.716 273.011 555.661 273.179 554.485 273.179ZM550.537 264.163H557.621C557.491 263.585 557.248 263.081 556.893 262.651C556.557 262.203 556.147 261.858 555.661 261.615C555.195 261.354 554.672 261.223 554.093 261.223C553.496 261.223 552.955 261.345 552.469 261.587C551.984 261.83 551.573 262.175 551.237 262.623C550.92 263.053 550.687 263.566 550.537 264.163ZM579.1 273.123C577.476 273.123 576.244 272.759 575.404 272.031C574.583 271.285 574.172 270.202 574.172 268.783V261.503H571.176V258.311H574.172V254.587L578.008 253.719V258.311H582.18V261.503H578.008V267.999C578.008 268.671 578.158 269.157 578.456 269.455C578.755 269.735 579.278 269.875 580.024 269.875C580.398 269.875 580.734 269.857 581.032 269.819C581.35 269.763 581.695 269.67 582.068 269.539V272.703C581.676 272.834 581.182 272.937 580.584 273.011C580.006 273.086 579.511 273.123 579.1 273.123ZM592.399 273.179C590.943 273.179 589.627 272.843 588.451 272.171C587.275 271.499 586.342 270.594 585.651 269.455C584.961 268.317 584.615 267.038 584.615 265.619C584.615 264.201 584.951 262.922 585.623 261.783C586.314 260.626 587.247 259.711 588.423 259.039C589.618 258.367 590.943 258.031 592.399 258.031C593.855 258.031 595.171 258.367 596.347 259.039C597.542 259.711 598.475 260.626 599.147 261.783C599.838 262.922 600.183 264.201 600.183 265.619C600.183 267.038 599.838 268.317 599.147 269.455C598.475 270.594 597.551 271.499 596.375 272.171C595.199 272.843 593.874 273.179 592.399 273.179ZM592.399 269.847C593.165 269.847 593.846 269.661 594.443 269.287C595.059 268.914 595.545 268.41 595.899 267.775C596.273 267.122 596.459 266.403 596.459 265.619C596.459 264.817 596.273 264.098 595.899 263.463C595.545 262.829 595.059 262.325 594.443 261.951C593.846 261.559 593.165 261.363 592.399 261.363C591.653 261.363 590.971 261.559 590.355 261.951C589.739 262.325 589.254 262.829 588.899 263.463C588.545 264.098 588.367 264.817 588.367 265.619C588.367 266.403 588.545 267.122 588.899 267.775C589.254 268.41 589.739 268.914 590.355 269.287C590.971 269.661 591.653 269.847 592.399 269.847ZM306.6 309.899V290.299L310.436 289.459V296.515C311.537 295.526 312.9 295.031 314.524 295.031C315.663 295.031 316.661 295.283 317.52 295.787C318.397 296.273 319.079 296.954 319.564 297.831C320.049 298.69 320.292 299.698 320.292 300.855V309.899H316.456V301.415C316.456 300.463 316.185 299.717 315.644 299.175C315.103 298.615 314.365 298.335 313.432 298.335C312.779 298.335 312.2 298.466 311.696 298.727C311.192 298.97 310.772 299.325 310.436 299.791V309.899H306.6ZM331.738 310.179C330.282 310.179 328.956 309.843 327.762 309.171C326.586 308.499 325.652 307.594 324.962 306.455C324.271 305.317 323.926 304.038 323.926 302.619C323.926 301.201 324.252 299.922 324.906 298.783C325.578 297.645 326.483 296.739 327.622 296.067C328.76 295.395 330.03 295.059 331.43 295.059C332.83 295.059 334.071 295.405 335.154 296.095C336.236 296.786 337.086 297.719 337.702 298.895C338.336 300.071 338.654 301.406 338.654 302.899V303.907H327.846C328.014 304.486 328.284 305.009 328.658 305.475C329.05 305.942 329.526 306.306 330.086 306.567C330.664 306.829 331.28 306.959 331.934 306.959C332.587 306.959 333.184 306.857 333.726 306.651C334.286 306.446 334.762 306.157 335.154 305.783L337.674 308.079C336.778 308.807 335.854 309.339 334.902 309.675C333.968 310.011 332.914 310.179 331.738 310.179ZM327.79 301.163H334.874C334.743 300.585 334.5 300.081 334.146 299.651C333.81 299.203 333.399 298.858 332.914 298.615C332.447 298.354 331.924 298.223 331.346 298.223C330.748 298.223 330.207 298.345 329.722 298.587C329.236 298.83 328.826 299.175 328.49 299.623C328.172 300.053 327.939 300.566 327.79 301.163ZM346.97 310.151C345.924 310.151 345 309.965 344.198 309.591C343.395 309.199 342.77 308.667 342.322 307.995C341.874 307.323 341.65 306.549 341.65 305.671C341.65 304.271 342.172 303.189 343.218 302.423C344.282 301.639 345.738 301.247 347.586 301.247C348.855 301.247 350.05 301.443 351.17 301.835V300.771C351.17 299.931 350.908 299.297 350.386 298.867C349.863 298.438 349.098 298.223 348.09 298.223C347.474 298.223 346.811 298.326 346.102 298.531C345.392 298.718 344.571 299.017 343.638 299.427L342.238 296.599C343.395 296.077 344.496 295.685 345.542 295.423C346.606 295.162 347.67 295.031 348.734 295.031C350.694 295.031 352.215 295.507 353.298 296.459C354.399 297.393 354.95 298.718 354.95 300.435V309.899H351.17V308.863C350.572 309.311 349.928 309.638 349.238 309.843C348.547 310.049 347.791 310.151 346.97 310.151ZM345.29 305.587C345.29 306.147 345.532 306.595 346.018 306.931C346.503 307.249 347.147 307.407 347.95 307.407C348.584 307.407 349.172 307.333 349.714 307.183C350.255 307.015 350.74 306.773 351.17 306.455V304.327C350.703 304.141 350.218 304.001 349.714 303.907C349.21 303.814 348.668 303.767 348.09 303.767C347.212 303.767 346.522 303.935 346.018 304.271C345.532 304.589 345.29 305.027 345.29 305.587ZM359.253 309.899V295.311H363.089V296.935C363.556 296.301 364.116 295.815 364.769 295.479C365.422 295.143 366.16 294.975 366.981 294.975C367.69 294.994 368.222 295.106 368.577 295.311V298.671C368.297 298.541 367.989 298.447 367.653 298.391C367.317 298.317 366.972 298.279 366.617 298.279C365.87 298.279 365.189 298.466 364.573 298.839C363.957 299.213 363.462 299.745 363.089 300.435V309.899H359.253ZM380.544 315.919C380.208 315.919 379.881 315.901 379.564 315.863C379.265 315.845 379.013 315.817 378.808 315.779V312.475C379.181 312.55 379.629 312.587 380.152 312.587C381.552 312.587 382.522 311.925 383.064 310.599L383.288 310.039L377.604 295.311H381.832L385.472 305.251L389.588 295.311H393.732L387.012 311.075C386.508 312.251 385.957 313.194 385.36 313.903C384.762 314.613 384.072 315.126 383.288 315.443C382.522 315.761 381.608 315.919 380.544 315.919ZM403.378 310.179C401.922 310.179 400.606 309.843 399.43 309.171C398.254 308.499 397.32 307.594 396.63 306.455C395.939 305.317 395.594 304.038 395.594 302.619C395.594 301.201 395.93 299.922 396.602 298.783C397.292 297.626 398.226 296.711 399.402 296.039C400.596 295.367 401.922 295.031 403.378 295.031C404.834 295.031 406.15 295.367 407.326 296.039C408.52 296.711 409.454 297.626 410.126 298.783C410.816 299.922 411.162 301.201 411.162 302.619C411.162 304.038 410.816 305.317 410.126 306.455C409.454 307.594 408.53 308.499 407.354 309.171C406.178 309.843 404.852 310.179 403.378 310.179ZM403.378 306.847C404.143 306.847 404.824 306.661 405.422 306.287C406.038 305.914 406.523 305.41 406.878 304.775C407.251 304.122 407.438 303.403 407.438 302.619C407.438 301.817 407.251 301.098 406.878 300.463C406.523 299.829 406.038 299.325 405.422 298.951C404.824 298.559 404.143 298.363 403.378 298.363C402.631 298.363 401.95 298.559 401.334 298.951C400.718 299.325 400.232 299.829 399.878 300.463C399.523 301.098 399.346 301.817 399.346 302.619C399.346 303.403 399.523 304.122 399.878 304.775C400.232 305.41 400.718 305.914 401.334 306.287C401.95 306.661 402.631 306.847 403.378 306.847ZM420.575 310.179C419.455 310.179 418.457 309.937 417.579 309.451C416.721 308.947 416.039 308.257 415.535 307.379C415.05 306.502 414.807 305.494 414.807 304.355V295.311H418.643V303.795C418.643 304.729 418.914 305.475 419.455 306.035C420.015 306.595 420.762 306.875 421.695 306.875C422.33 306.875 422.899 306.754 423.403 306.511C423.926 306.25 424.355 305.886 424.691 305.419V295.311H428.527V309.899H424.691V308.723C423.571 309.694 422.199 310.179 420.575 310.179ZM432.917 309.899V295.311H436.753V296.935C437.22 296.301 437.78 295.815 438.433 295.479C439.086 295.143 439.824 294.975 440.645 294.975C441.354 294.994 441.886 295.106 442.241 295.311V298.671C441.961 298.541 441.653 298.447 441.317 298.391C440.981 298.317 440.636 298.279 440.281 298.279C439.534 298.279 438.853 298.466 438.237 298.839C437.621 299.213 437.126 299.745 436.753 300.435V309.899H432.917ZM457.512 309.899L451.268 295.311H455.44L459.444 305.027L463.42 295.311H467.508L461.236 309.899H457.512ZM477.124 310.179C475.668 310.179 474.352 309.843 473.176 309.171C472 308.499 471.066 307.594 470.376 306.455C469.685 305.317 469.34 304.038 469.34 302.619C469.34 301.201 469.676 299.922 470.348 298.783C471.038 297.626 471.972 296.711 473.148 296.039C474.342 295.367 475.668 295.031 477.124 295.031C478.58 295.031 479.896 295.367 481.072 296.039C482.266 296.711 483.2 297.626 483.872 298.783C484.562 299.922 484.908 301.201 484.908 302.619C484.908 304.038 484.562 305.317 483.872 306.455C483.2 307.594 482.276 308.499 481.1 309.171C479.924 309.843 478.598 310.179 477.124 310.179ZM477.124 306.847C477.889 306.847 478.57 306.661 479.168 306.287C479.784 305.914 480.269 305.41 480.624 304.775C480.997 304.122 481.184 303.403 481.184 302.619C481.184 301.817 480.997 301.098 480.624 300.463C480.269 299.829 479.784 299.325 479.168 298.951C478.57 298.559 477.889 298.363 477.124 298.363C476.377 298.363 475.696 298.559 475.08 298.951C474.464 299.325 473.978 299.829 473.624 300.463C473.269 301.098 473.092 301.817 473.092 302.619C473.092 303.403 473.269 304.122 473.624 304.775C473.978 305.41 474.464 305.914 475.08 306.287C475.696 306.661 476.377 306.847 477.124 306.847ZM488.666 309.899V295.311H492.502V309.899H488.666ZM490.57 293.575C489.972 293.575 489.459 293.361 489.03 292.931C488.6 292.502 488.386 291.989 488.386 291.391C488.386 290.775 488.6 290.262 489.03 289.851C489.459 289.422 489.972 289.207 490.57 289.207C491.186 289.207 491.699 289.422 492.11 289.851C492.539 290.262 492.754 290.775 492.754 291.391C492.754 291.989 492.539 292.502 492.11 292.931C491.699 293.361 491.186 293.575 490.57 293.575ZM503.873 310.179C502.436 310.179 501.139 309.853 499.981 309.199C498.824 308.527 497.909 307.622 497.237 306.483C496.565 305.326 496.229 304.038 496.229 302.619C496.229 301.182 496.565 299.894 497.237 298.755C497.909 297.617 498.824 296.711 499.981 296.039C501.139 295.367 502.436 295.031 503.873 295.031C505.031 295.031 506.132 295.255 507.177 295.703C508.241 296.151 509.156 296.795 509.921 297.635L507.569 300.127C507.028 299.53 506.459 299.091 505.861 298.811C505.283 298.513 504.648 298.363 503.957 298.363C503.211 298.363 502.539 298.55 501.941 298.923C501.363 299.297 500.896 299.801 500.541 300.435C500.205 301.07 500.037 301.798 500.037 302.619C500.037 303.403 500.205 304.122 500.541 304.775C500.896 305.41 501.381 305.914 501.997 306.287C502.613 306.642 503.295 306.819 504.041 306.819C504.695 306.819 505.301 306.689 505.861 306.427C506.44 306.147 506.991 305.737 507.513 305.195L509.809 307.603C509.063 308.406 508.167 309.041 507.121 309.507C506.076 309.955 504.993 310.179 503.873 310.179ZM519.934 310.179C518.478 310.179 517.152 309.843 515.958 309.171C514.782 308.499 513.848 307.594 513.158 306.455C512.467 305.317 512.122 304.038 512.122 302.619C512.122 301.201 512.448 299.922 513.102 298.783C513.774 297.645 514.679 296.739 515.818 296.067C516.956 295.395 518.226 295.059 519.626 295.059C521.026 295.059 522.267 295.405 523.35 296.095C524.432 296.786 525.282 297.719 525.898 298.895C526.532 300.071 526.85 301.406 526.85 302.899V303.907H516.042C516.21 304.486 516.48 305.009 516.854 305.475C517.246 305.942 517.722 306.306 518.282 306.567C518.86 306.829 519.476 306.959 520.13 306.959C520.783 306.959 521.38 306.857 521.922 306.651C522.482 306.446 522.958 306.157 523.35 305.783L525.87 308.079C524.974 308.807 524.05 309.339 523.098 309.675C522.164 310.011 521.11 310.179 519.934 310.179ZM515.986 301.163H523.07C522.939 300.585 522.696 300.081 522.342 299.651C522.006 299.203 521.595 298.858 521.11 298.615C520.643 298.354 520.12 298.223 519.542 298.223C518.944 298.223 518.403 298.345 517.918 298.587C517.432 298.83 517.022 299.175 516.686 299.623C516.368 300.053 516.135 300.566 515.986 301.163ZM542.281 310.151C541.235 310.151 540.311 309.965 539.509 309.591C538.706 309.199 538.081 308.667 537.633 307.995C537.185 307.323 536.961 306.549 536.961 305.671C536.961 304.271 537.483 303.189 538.529 302.423C539.593 301.639 541.049 301.247 542.897 301.247C544.166 301.247 545.361 301.443 546.481 301.835V300.771C546.481 299.931 546.219 299.297 545.697 298.867C545.174 298.438 544.409 298.223 543.401 298.223C542.785 298.223 542.122 298.326 541.413 298.531C540.703 298.718 539.882 299.017 538.949 299.427L537.549 296.599C538.706 296.077 539.807 295.685 540.853 295.423C541.917 295.162 542.981 295.031 544.045 295.031C546.005 295.031 547.526 295.507 548.609 296.459C549.71 297.393 550.261 298.718 550.261 300.435V309.899H546.481V308.863C545.883 309.311 545.239 309.638 544.549 309.843C543.858 310.049 543.102 310.151 542.281 310.151ZM540.601 305.587C540.601 306.147 540.843 306.595 541.329 306.931C541.814 307.249 542.458 307.407 543.261 307.407C543.895 307.407 544.483 307.333 545.025 307.183C545.566 307.015 546.051 306.773 546.481 306.455V304.327C546.014 304.141 545.529 304.001 545.025 303.907C544.521 303.814 543.979 303.767 543.401 303.767C542.523 303.767 541.833 303.935 541.329 304.271C540.843 304.589 540.601 305.027 540.601 305.587ZM561.9 315.891C560.78 315.891 559.697 315.77 558.652 315.527C557.607 315.303 556.664 314.977 555.824 314.547L557.168 311.579C557.971 311.971 558.755 312.261 559.52 312.447C560.285 312.634 561.051 312.727 561.816 312.727C562.955 312.727 563.813 312.485 564.392 311.999C564.989 311.514 565.288 310.786 565.288 309.815V308.667C564.093 309.545 562.759 309.983 561.284 309.983C559.903 309.983 558.652 309.657 557.532 309.003C556.431 308.331 555.544 307.426 554.872 306.287C554.219 305.149 553.892 303.889 553.892 302.507C553.892 301.126 554.219 299.875 554.872 298.755C555.544 297.635 556.449 296.749 557.588 296.095C558.727 295.423 559.996 295.087 561.396 295.087C562.105 295.087 562.796 295.19 563.468 295.395C564.14 295.601 564.765 295.89 565.344 296.263V295.311H569.124V309.871C569.124 311.794 568.499 313.278 567.248 314.323C566.016 315.369 564.233 315.891 561.9 315.891ZM561.872 306.735C562.581 306.735 563.225 306.623 563.804 306.399C564.383 306.157 564.877 305.821 565.288 305.391V299.679C564.877 299.269 564.373 298.951 563.776 298.727C563.197 298.485 562.572 298.363 561.9 298.363C561.097 298.363 560.379 298.55 559.744 298.923C559.109 299.278 558.605 299.773 558.232 300.407C557.859 301.023 557.672 301.723 557.672 302.507C557.672 303.31 557.849 304.029 558.204 304.663C558.577 305.298 559.081 305.802 559.716 306.175C560.369 306.549 561.088 306.735 561.872 306.735ZM578.167 310.151C577.121 310.151 576.197 309.965 575.395 309.591C574.592 309.199 573.967 308.667 573.519 307.995C573.071 307.323 572.847 306.549 572.847 305.671C572.847 304.271 573.369 303.189 574.415 302.423C575.479 301.639 576.935 301.247 578.783 301.247C580.052 301.247 581.247 301.443 582.367 301.835V300.771C582.367 299.931 582.105 299.297 581.583 298.867C581.06 298.438 580.295 298.223 579.287 298.223C578.671 298.223 578.008 298.326 577.299 298.531C576.589 298.718 575.768 299.017 574.835 299.427L573.435 296.599C574.592 296.077 575.693 295.685 576.739 295.423C577.803 295.162 578.867 295.031 579.931 295.031C581.891 295.031 583.412 295.507 584.495 296.459C585.596 297.393 586.147 298.718 586.147 300.435V309.899H582.367V308.863C581.769 309.311 581.125 309.638 580.435 309.843C579.744 310.049 578.988 310.151 578.167 310.151ZM576.487 305.587C576.487 306.147 576.729 306.595 577.215 306.931C577.7 307.249 578.344 307.407 579.147 307.407C579.781 307.407 580.369 307.333 580.911 307.183C581.452 307.015 581.937 306.773 582.367 306.455V304.327C581.9 304.141 581.415 304.001 580.911 303.907C580.407 303.814 579.865 303.767 579.287 303.767C578.409 303.767 577.719 303.935 577.215 304.271C576.729 304.589 576.487 305.027 576.487 305.587ZM590.45 309.899V295.311H594.286V309.899H590.45ZM592.354 293.575C591.757 293.575 591.243 293.361 590.814 292.931C590.385 292.502 590.17 291.989 590.17 291.391C590.17 290.775 590.385 290.262 590.814 289.851C591.243 289.422 591.757 289.207 592.354 289.207C592.97 289.207 593.483 289.422 593.894 289.851C594.323 290.262 594.538 290.775 594.538 291.391C594.538 291.989 594.323 292.502 593.894 292.931C593.483 293.361 592.97 293.575 592.354 293.575ZM598.686 309.899V295.311H602.522V296.515C603.623 295.526 604.986 295.031 606.61 295.031C607.749 295.031 608.747 295.283 609.606 295.787C610.483 296.273 611.165 296.954 611.65 297.831C612.135 298.69 612.378 299.698 612.378 300.855V309.899H608.542V301.415C608.542 300.463 608.271 299.717 607.73 299.175C607.189 298.615 606.451 298.335 605.518 298.335C604.865 298.335 604.286 298.466 603.782 298.727C603.278 298.97 602.858 299.325 602.522 299.791V309.899H598.686ZM618.672 310.179C618.056 310.179 617.524 309.955 617.076 309.507C616.628 309.059 616.404 308.527 616.404 307.911C616.404 307.277 616.628 306.735 617.076 306.287C617.524 305.839 618.056 305.615 618.672 305.615C619.288 305.615 619.82 305.839 620.268 306.287C620.716 306.735 620.94 307.277 620.94 307.911C620.94 308.527 620.716 309.059 620.268 309.507C619.82 309.955 619.288 310.179 618.672 310.179Z" fill="#FADBBB"/>
</g>
<rect x="16" y="456.265" width="355.663" height="183.929" rx="12" fill="#F5B85B"/>
<circle cx="335.59" cy="490.306" r="20.8317" fill="#FFF8EF"/>
<path d="M336.054 497.809C334.863 497.809 333.818 497.514 332.922 496.925C332.025 496.336 331.322 495.526 330.813 494.496C330.318 493.452 330.07 492.24 330.07 490.861C330.07 489.349 330.345 488.03 330.894 486.906C331.456 485.768 332.232 484.885 333.223 484.255C334.227 483.626 335.398 483.312 336.737 483.312C337.473 483.312 338.202 483.432 338.925 483.673C339.648 483.914 340.25 484.249 340.732 484.677L339.247 486.564C338.858 486.257 338.443 486.029 338.002 485.882C337.56 485.735 337.071 485.661 336.536 485.661C335.719 485.661 335.023 485.868 334.448 486.283C333.872 486.698 333.43 487.294 333.122 488.07C332.828 488.833 332.674 489.77 332.661 490.881C333.129 490.239 333.691 489.744 334.347 489.396C335.003 489.034 335.693 488.854 336.415 488.854C337.339 488.854 338.156 489.041 338.865 489.416C339.574 489.777 340.13 490.286 340.532 490.942C340.933 491.584 341.134 492.32 341.134 493.15C341.134 494.034 340.913 494.83 340.471 495.54C340.03 496.236 339.427 496.791 338.664 497.206C337.901 497.608 337.031 497.809 336.054 497.809ZM335.974 490.922C335.358 490.922 334.776 491.049 334.227 491.303C333.691 491.557 333.216 491.919 332.801 492.387C332.935 493.03 333.142 493.592 333.424 494.074C333.718 494.543 334.08 494.904 334.508 495.158C334.936 495.413 335.411 495.54 335.933 495.54C336.429 495.54 336.871 495.439 337.259 495.239C337.66 495.038 337.975 494.763 338.202 494.415C338.43 494.054 338.544 493.652 338.544 493.211C338.544 492.756 338.437 492.361 338.222 492.026C338.008 491.678 337.707 491.41 337.319 491.223C336.944 491.022 336.496 490.922 335.974 490.922Z" fill="#F5B85B"/>
<path d="M39.6038 490.703C38.6678 490.703 37.7918 490.541 36.9758 490.217C36.1598 489.881 35.4458 489.419 34.8338 488.831C34.2338 488.243 33.7598 487.559 33.4118 486.779C33.0758 485.987 32.9078 485.135 32.9078 484.223C32.9078 483.299 33.0758 482.447 33.4118 481.667C33.7598 480.875 34.2398 480.185 34.8518 479.597C35.4638 479.009 36.1718 478.553 36.9758 478.229C37.7918 477.893 38.6678 477.725 39.6038 477.725C40.2998 477.725 40.9718 477.821 41.6198 478.013C42.2678 478.205 42.8678 478.475 43.4198 478.823C43.9838 479.171 44.4638 479.591 44.8598 480.083L43.0958 481.829C42.6398 481.265 42.1118 480.839 41.5118 480.551C40.9238 480.263 40.2878 480.119 39.6038 480.119C39.0398 480.119 38.5118 480.227 38.0198 480.443C37.5278 480.647 37.1018 480.935 36.7418 481.307C36.3818 481.667 36.0998 482.099 35.8958 482.603C35.6918 483.095 35.5898 483.635 35.5898 484.223C35.5898 484.799 35.6918 485.339 35.8958 485.843C36.0998 486.335 36.3878 486.767 36.7598 487.139C37.1318 487.499 37.5638 487.781 38.0558 487.985C38.5598 488.189 39.1058 488.291 39.6938 488.291C40.3538 488.291 40.9718 488.153 41.5478 487.877C42.1238 487.601 42.6338 487.205 43.0778 486.689L44.7878 488.381C44.3918 488.861 43.9178 489.275 43.3658 489.623C42.8138 489.971 42.2138 490.241 41.5658 490.433C40.9298 490.613 40.2758 490.703 39.6038 490.703ZM50.46 490.703C49.524 490.703 48.678 490.487 47.922 490.055C47.166 489.623 46.566 489.041 46.122 488.309C45.678 487.577 45.456 486.755 45.456 485.843C45.456 484.931 45.672 484.109 46.104 483.377C46.548 482.633 47.148 482.045 47.904 481.613C48.672 481.181 49.524 480.965 50.46 480.965C51.396 480.965 52.242 481.181 52.998 481.613C53.766 482.045 54.366 482.633 54.798 483.377C55.242 484.109 55.464 484.931 55.464 485.843C55.464 486.755 55.242 487.577 54.798 488.309C54.366 489.041 53.772 489.623 53.016 490.055C52.26 490.487 51.408 490.703 50.46 490.703ZM50.46 488.561C50.952 488.561 51.39 488.441 51.774 488.201C52.17 487.961 52.482 487.637 52.71 487.229C52.95 486.809 53.07 486.347 53.07 485.843C53.07 485.327 52.95 484.865 52.71 484.457C52.482 484.049 52.17 483.725 51.774 483.485C51.39 483.233 50.952 483.107 50.46 483.107C49.98 483.107 49.542 483.233 49.146 483.485C48.75 483.725 48.438 484.049 48.21 484.457C47.982 484.865 47.868 485.327 47.868 485.843C47.868 486.347 47.982 486.809 48.21 487.229C48.438 487.637 48.75 487.961 49.146 488.201C49.542 488.441 49.98 488.561 50.46 488.561ZM56.9798 490.523V481.145H59.4458V481.919C60.1538 481.283 61.0298 480.965 62.0738 480.965C62.8058 480.965 63.4478 481.127 63.9998 481.451C64.5638 481.763 65.0018 482.201 65.3138 482.765C65.6258 483.317 65.7818 483.965 65.7818 484.709V490.523H63.3158V485.069C63.3158 484.457 63.1418 483.977 62.7938 483.629C62.4458 483.269 61.9718 483.089 61.3718 483.089C60.9518 483.089 60.5798 483.173 60.2558 483.341C59.9318 483.497 59.6618 483.725 59.4458 484.025V490.523H56.9798ZM68.8261 490.523V483.197H66.7381V481.145H68.8261V480.245C68.8261 479.189 69.1321 478.385 69.7441 477.833C70.3561 477.269 71.2381 476.987 72.3901 476.987C72.6421 476.987 72.9001 476.999 73.1641 477.023C73.4281 477.047 73.6561 477.089 73.8481 477.149V479.219C73.6201 479.171 73.4221 479.135 73.2541 479.111C73.0861 479.087 72.9001 479.075 72.6961 479.075C72.2281 479.075 71.8741 479.177 71.6341 479.381C71.4061 479.573 71.2921 479.879 71.2921 480.299V481.145H73.8481V483.197H71.2921V490.523H68.8261ZM75.138 490.523V477.923L77.604 477.509V490.523H75.138ZM79.5325 490.523V481.145H81.9985V490.523H79.5325ZM80.7565 480.029C80.3725 480.029 80.0425 479.891 79.7665 479.615C79.4905 479.339 79.3525 479.009 79.3525 478.625C79.3525 478.229 79.4905 477.899 79.7665 477.635C80.0425 477.359 80.3725 477.221 80.7565 477.221C81.1525 477.221 81.4825 477.359 81.7465 477.635C82.0225 477.899 82.1605 478.229 82.1605 478.625C82.1605 479.009 82.0225 479.339 81.7465 479.615C81.4825 479.891 81.1525 480.029 80.7565 480.029ZM88.4091 490.703C87.4851 490.703 86.6511 490.493 85.9071 490.073C85.1631 489.641 84.5751 489.059 84.1431 488.327C83.7111 487.583 83.4951 486.755 83.4951 485.843C83.4951 484.919 83.7111 484.091 84.1431 483.359C84.5751 482.627 85.1631 482.045 85.9071 481.613C86.6511 481.181 87.4851 480.965 88.4091 480.965C89.1531 480.965 89.8611 481.109 90.5331 481.397C91.2171 481.685 91.8051 482.099 92.2971 482.639L90.7851 484.241C90.4371 483.857 90.0711 483.575 89.6871 483.395C89.3151 483.203 88.9071 483.107 88.4631 483.107C87.9831 483.107 87.5511 483.227 87.1671 483.467C86.7951 483.707 86.4951 484.031 86.2671 484.439C86.0511 484.847 85.9431 485.315 85.9431 485.843C85.9431 486.347 86.0511 486.809 86.2671 487.229C86.4951 487.637 86.8071 487.961 87.2031 488.201C87.5991 488.429 88.0371 488.543 88.5171 488.543C88.9371 488.543 89.3271 488.459 89.6871 488.291C90.0591 488.111 90.4131 487.847 90.7491 487.499L92.2251 489.047C91.7451 489.563 91.1691 489.971 90.4971 490.271C89.8251 490.559 89.1291 490.703 88.4091 490.703ZM98.1289 490.667C97.0849 490.667 96.2929 490.433 95.7529 489.965C95.2249 489.485 94.9609 488.789 94.9609 487.877V483.197H93.0349V481.145H94.9609V478.751L97.4269 478.193V481.145H100.109V483.197H97.4269V487.373C97.4269 487.805 97.5229 488.117 97.7149 488.309C97.9069 488.489 98.2429 488.579 98.7229 488.579C98.9629 488.579 99.1789 488.567 99.3709 488.543C99.5749 488.507 99.7969 488.447 100.037 488.363V490.397C99.7849 490.481 99.4669 490.547 99.0829 490.595C98.7109 490.643 98.3929 490.667 98.1289 490.667ZM105.095 490.523V477.923H111.251C112.103 477.923 112.853 478.091 113.501 478.427C114.161 478.751 114.671 479.207 115.031 479.795C115.403 480.383 115.589 481.061 115.589 481.829C115.589 482.633 115.367 483.341 114.923 483.953C114.479 484.565 113.885 485.021 113.141 485.321L115.931 490.523H113.015L110.549 485.699H107.705V490.523H105.095ZM107.705 483.557H111.017C111.605 483.557 112.073 483.401 112.421 483.089C112.781 482.777 112.961 482.369 112.961 481.865C112.961 481.361 112.781 480.953 112.421 480.641C112.073 480.329 111.605 480.173 111.017 480.173H107.705V483.557ZM121.195 490.703C120.259 490.703 119.407 490.487 118.639 490.055C117.883 489.623 117.283 489.041 116.839 488.309C116.395 487.577 116.173 486.755 116.173 485.843C116.173 484.931 116.383 484.109 116.803 483.377C117.235 482.645 117.817 482.063 118.549 481.631C119.281 481.199 120.097 480.983 120.997 480.983C121.897 480.983 122.695 481.205 123.391 481.649C124.087 482.093 124.633 482.693 125.029 483.449C125.437 484.205 125.641 485.063 125.641 486.023V486.671H118.693C118.801 487.043 118.975 487.379 119.215 487.679C119.467 487.979 119.773 488.213 120.133 488.381C120.505 488.549 120.901 488.633 121.321 488.633C121.741 488.633 122.125 488.567 122.473 488.435C122.833 488.303 123.139 488.117 123.391 487.877L125.011 489.353C124.435 489.821 123.841 490.163 123.229 490.379C122.629 490.595 121.951 490.703 121.195 490.703ZM118.657 484.907H123.211C123.127 484.535 122.971 484.211 122.743 483.935C122.527 483.647 122.263 483.425 121.951 483.269C121.651 483.101 121.315 483.017 120.943 483.017C120.559 483.017 120.211 483.095 119.899 483.251C119.587 483.407 119.323 483.629 119.107 483.917C118.903 484.193 118.753 484.523 118.657 484.907ZM130.75 490.703C129.886 490.703 129.088 490.595 128.356 490.379C127.624 490.151 126.988 489.827 126.448 489.407L127.672 487.769C128.212 488.129 128.728 488.399 129.22 488.579C129.724 488.759 130.222 488.849 130.714 488.849C131.266 488.849 131.704 488.759 132.028 488.579C132.364 488.387 132.532 488.141 132.532 487.841C132.532 487.601 132.436 487.409 132.244 487.265C132.064 487.121 131.77 487.019 131.362 486.959L129.562 486.689C128.626 486.545 127.918 486.245 127.438 485.789C126.958 485.321 126.718 484.709 126.718 483.953C126.718 483.341 126.874 482.819 127.186 482.387C127.51 481.943 127.96 481.601 128.536 481.361C129.124 481.109 129.82 480.983 130.624 480.983C131.308 480.983 131.974 481.079 132.622 481.271C133.282 481.463 133.9 481.757 134.476 482.153L133.288 483.755C132.772 483.431 132.28 483.197 131.812 483.053C131.344 482.909 130.87 482.837 130.39 482.837C129.946 482.837 129.586 482.921 129.31 483.089C129.046 483.257 128.914 483.479 128.914 483.755C128.914 484.007 129.01 484.205 129.202 484.349C129.394 484.493 129.724 484.595 130.192 484.655L131.974 484.925C132.91 485.057 133.624 485.357 134.116 485.825C134.608 486.281 134.854 486.875 134.854 487.607C134.854 488.207 134.674 488.741 134.314 489.209C133.954 489.665 133.468 490.031 132.856 490.307C132.244 490.571 131.542 490.703 130.75 490.703ZM140.741 490.703C139.805 490.703 138.959 490.487 138.203 490.055C137.447 489.623 136.847 489.041 136.403 488.309C135.959 487.577 135.737 486.755 135.737 485.843C135.737 484.931 135.953 484.109 136.385 483.377C136.829 482.633 137.429 482.045 138.185 481.613C138.953 481.181 139.805 480.965 140.741 480.965C141.677 480.965 142.523 481.181 143.279 481.613C144.047 482.045 144.647 482.633 145.079 483.377C145.523 484.109 145.745 484.931 145.745 485.843C145.745 486.755 145.523 487.577 145.079 488.309C144.647 489.041 144.053 489.623 143.297 490.055C142.541 490.487 141.689 490.703 140.741 490.703ZM140.741 488.561C141.233 488.561 141.671 488.441 142.055 488.201C142.451 487.961 142.763 487.637 142.991 487.229C143.231 486.809 143.351 486.347 143.351 485.843C143.351 485.327 143.231 484.865 142.991 484.457C142.763 484.049 142.451 483.725 142.055 483.485C141.671 483.233 141.233 483.107 140.741 483.107C140.261 483.107 139.823 483.233 139.427 483.485C139.031 483.725 138.719 484.049 138.491 484.457C138.263 484.865 138.149 485.327 138.149 485.843C138.149 486.347 138.263 486.809 138.491 487.229C138.719 487.637 139.031 487.961 139.427 488.201C139.823 488.441 140.261 488.561 140.741 488.561ZM147.261 490.523V477.923L149.727 477.509V490.523H147.261ZM155.292 490.703C154.572 490.703 153.93 490.547 153.366 490.235C152.814 489.911 152.376 489.467 152.052 488.903C151.74 488.339 151.584 487.691 151.584 486.959V481.145H154.05V486.599C154.05 487.199 154.224 487.679 154.572 488.039C154.932 488.399 155.412 488.579 156.012 488.579C156.42 488.579 156.786 488.501 157.11 488.345C157.446 488.177 157.722 487.943 157.938 487.643V481.145H160.404V490.523H157.938V489.767C157.218 490.391 156.336 490.703 155.292 490.703ZM166.772 490.667C165.728 490.667 164.936 490.433 164.396 489.965C163.868 489.485 163.604 488.789 163.604 487.877V483.197H161.678V481.145H163.604V478.751L166.07 478.193V481.145H168.752V483.197H166.07V487.373C166.07 487.805 166.166 488.117 166.358 488.309C166.55 488.489 166.886 488.579 167.366 488.579C167.606 488.579 167.822 488.567 168.014 488.543C168.218 488.507 168.44 488.447 168.68 488.363V490.397C168.428 490.481 168.11 490.547 167.726 490.595C167.354 490.643 167.036 490.667 166.772 490.667ZM169.954 490.523V481.145H172.42V490.523H169.954ZM171.178 480.029C170.794 480.029 170.464 479.891 170.188 479.615C169.912 479.339 169.774 479.009 169.774 478.625C169.774 478.229 169.912 477.899 170.188 477.635C170.464 477.359 170.794 477.221 171.178 477.221C171.574 477.221 171.904 477.359 172.168 477.635C172.444 477.899 172.582 478.229 172.582 478.625C172.582 479.009 172.444 479.339 172.168 479.615C171.904 479.891 171.574 480.029 171.178 480.029ZM178.921 490.703C177.985 490.703 177.139 490.487 176.383 490.055C175.627 489.623 175.027 489.041 174.583 488.309C174.139 487.577 173.917 486.755 173.917 485.843C173.917 484.931 174.133 484.109 174.565 483.377C175.009 482.633 175.609 482.045 176.365 481.613C177.133 481.181 177.985 480.965 178.921 480.965C179.857 480.965 180.703 481.181 181.459 481.613C182.227 482.045 182.827 482.633 183.259 483.377C183.703 484.109 183.925 484.931 183.925 485.843C183.925 486.755 183.703 487.577 183.259 488.309C182.827 489.041 182.233 489.623 181.477 490.055C180.721 490.487 179.869 490.703 178.921 490.703ZM178.921 488.561C179.413 488.561 179.851 488.441 180.235 488.201C180.631 487.961 180.943 487.637 181.171 487.229C181.411 486.809 181.531 486.347 181.531 485.843C181.531 485.327 181.411 484.865 181.171 484.457C180.943 484.049 180.631 483.725 180.235 483.485C179.851 483.233 179.413 483.107 178.921 483.107C178.441 483.107 178.003 483.233 177.607 483.485C177.211 483.725 176.899 484.049 176.671 484.457C176.443 484.865 176.329 485.327 176.329 485.843C176.329 486.347 176.443 486.809 176.671 487.229C176.899 487.637 177.211 487.961 177.607 488.201C178.003 488.441 178.441 488.561 178.921 488.561ZM185.441 490.523V481.145H187.907V481.919C188.615 481.283 189.491 480.965 190.535 480.965C191.267 480.965 191.909 481.127 192.461 481.451C193.025 481.763 193.463 482.201 193.775 482.765C194.087 483.317 194.243 483.965 194.243 484.709V490.523H191.777V485.069C191.777 484.457 191.603 483.977 191.255 483.629C190.907 483.269 190.433 483.089 189.833 483.089C189.413 483.089 189.041 483.173 188.717 483.341C188.393 483.497 188.123 483.725 187.907 484.025V490.523H185.441Z" fill="#FFF8EF"/>
<path d="M16 590.4V628.193C16 634.821 21.3726 640.193 28 640.193H359.663C366.291 640.193 371.663 634.821 371.663 628.193V581.255L337.573 559.022L282.62 566.163L252.77 571.601L193.577 559.023L150.136 571.601L105.552 576.363L16 590.4Z" fill="url(#paint3_linear_526_4281)"/>
<path d="M52.7744 628.954C52.221 628.954 51.691 628.844 51.1844 628.624C50.6777 628.397 50.231 628.074 49.8444 627.654L50.3544 627.124C50.7144 627.51 51.0977 627.8 51.5044 627.994C51.9177 628.187 52.351 628.284 52.8044 628.284C53.171 628.284 53.4944 628.227 53.7744 628.114C54.061 627.994 54.2844 627.83 54.4444 627.624C54.6044 627.41 54.6844 627.17 54.6844 626.904C54.6844 626.544 54.5577 626.267 54.3044 626.074C54.0577 625.88 53.6477 625.737 53.0744 625.644L52.0644 625.484C51.391 625.37 50.8944 625.17 50.5744 624.884C50.2544 624.597 50.0944 624.207 50.0944 623.714C50.0944 623.327 50.1977 622.987 50.4044 622.694C50.611 622.4 50.8977 622.174 51.2644 622.014C51.6377 621.847 52.0677 621.764 52.5544 621.764C53.0477 621.764 53.531 621.844 54.0044 622.004C54.4844 622.164 54.921 622.394 55.3144 622.694L54.8744 623.294C54.1077 622.714 53.3244 622.424 52.5244 622.424C52.191 622.424 51.8977 622.477 51.6444 622.584C51.391 622.684 51.1944 622.827 51.0544 623.014C50.9144 623.194 50.8444 623.407 50.8444 623.654C50.8444 623.98 50.9544 624.23 51.1744 624.404C51.3944 624.577 51.7577 624.704 52.2644 624.784L53.2644 624.944C54.031 625.07 54.5877 625.287 54.9344 625.594C55.281 625.894 55.4544 626.317 55.4544 626.864C55.4544 627.27 55.341 627.634 55.1144 627.954C54.8877 628.267 54.571 628.514 54.1644 628.694C53.7644 628.867 53.301 628.954 52.7744 628.954ZM58.8081 628.944C58.3281 628.944 57.8914 628.83 57.4981 628.604C57.1114 628.37 56.8014 628.057 56.5681 627.664C56.3414 627.27 56.2281 626.83 56.2281 626.344C56.2281 625.864 56.3381 625.43 56.5581 625.044C56.7781 624.65 57.0748 624.34 57.4481 624.114C57.8214 623.88 58.2381 623.764 58.6981 623.764C59.1448 623.764 59.5448 623.88 59.8981 624.114C60.2581 624.34 60.5414 624.65 60.7481 625.044C60.9614 625.43 61.0681 625.864 61.0681 626.344V626.574H56.9581C56.9981 626.9 57.1014 627.194 57.2681 627.454C57.4414 627.714 57.6648 627.92 57.9381 628.074C58.2114 628.22 58.5114 628.294 58.8381 628.294C59.0981 628.294 59.3514 628.254 59.5981 628.174C59.8448 628.094 60.0514 627.98 60.2181 627.834L60.6781 628.324C60.3981 628.53 60.1048 628.687 59.7981 628.794C59.4981 628.894 59.1681 628.944 58.8081 628.944ZM56.9781 625.984H60.3281C60.2881 625.684 60.1881 625.417 60.0281 625.184C59.8748 624.944 59.6814 624.757 59.4481 624.624C59.2148 624.484 58.9581 624.414 58.6781 624.414C58.3914 624.414 58.1281 624.48 57.8881 624.614C57.6481 624.747 57.4481 624.934 57.2881 625.174C57.1281 625.407 57.0248 625.677 56.9781 625.984ZM62.1026 630.894V623.844H62.8326V624.384C63.266 623.97 63.806 623.764 64.4526 623.764C64.926 623.764 65.3526 623.88 65.7326 624.114C66.1126 624.34 66.4126 624.647 66.6326 625.034C66.8593 625.42 66.9726 625.857 66.9726 626.344C66.9726 626.83 66.8593 627.27 66.6326 627.664C66.4126 628.05 66.1126 628.36 65.7326 628.594C65.3526 628.82 64.9226 628.934 64.4426 628.934C64.1493 628.934 63.866 628.884 63.5926 628.784C63.3193 628.684 63.0693 628.54 62.8426 628.354V630.894H62.1026ZM64.3826 628.284C64.736 628.284 65.0526 628.2 65.3326 628.034C65.6126 627.86 65.8326 627.63 65.9926 627.344C66.1593 627.05 66.2426 626.72 66.2426 626.354C66.2426 625.987 66.1593 625.657 65.9926 625.364C65.8326 625.07 65.6126 624.84 65.3326 624.674C65.0526 624.5 64.736 624.414 64.3826 624.414C64.0693 624.414 63.776 624.477 63.5026 624.604C63.236 624.724 63.016 624.894 62.8426 625.114V627.594C63.016 627.807 63.2393 627.977 63.5126 628.104C63.786 628.224 64.076 628.284 64.3826 628.284ZM69.6195 628.954C69.1862 628.954 68.8528 628.85 68.6195 628.644C68.3862 628.437 68.2695 628.137 68.2695 627.744V624.474H67.1895V623.844H68.2695V622.574L68.9995 622.384V623.844H70.5095V624.474H68.9995V627.554C68.9995 627.82 69.0595 628.014 69.1795 628.134C69.2995 628.247 69.4962 628.304 69.7695 628.304C69.9095 628.304 70.0328 628.294 70.1395 628.274C70.2528 628.254 70.3728 628.22 70.4995 628.174V628.824C70.3728 628.87 70.2295 628.904 70.0695 628.924C69.9162 628.944 69.7662 628.954 69.6195 628.954Z" fill="#FFF8EF"/>
<path d="M147.23 628.964C146.723 628.964 146.25 628.874 145.81 628.694C145.376 628.507 144.993 628.25 144.66 627.924C144.333 627.59 144.076 627.207 143.89 626.774C143.71 626.334 143.62 625.86 143.62 625.354C143.62 624.847 143.71 624.377 143.89 623.944C144.076 623.504 144.333 623.12 144.66 622.794C144.993 622.46 145.376 622.204 145.81 622.024C146.25 621.837 146.723 621.744 147.23 621.744C147.73 621.744 148.196 621.837 148.63 622.024C149.07 622.204 149.453 622.46 149.78 622.794C150.113 623.12 150.37 623.504 150.55 623.944C150.736 624.377 150.83 624.847 150.83 625.354C150.83 625.86 150.736 626.334 150.55 626.774C150.37 627.207 150.113 627.59 149.78 627.924C149.453 628.25 149.07 628.507 148.63 628.694C148.196 628.874 147.73 628.964 147.23 628.964ZM147.23 628.254C147.63 628.254 148 628.18 148.34 628.034C148.68 627.887 148.976 627.684 149.23 627.424C149.49 627.157 149.69 626.847 149.83 626.494C149.976 626.14 150.05 625.76 150.05 625.354C150.05 624.94 149.976 624.56 149.83 624.214C149.69 623.86 149.49 623.554 149.23 623.294C148.976 623.027 148.68 622.82 148.34 622.674C148 622.527 147.63 622.454 147.23 622.454C146.83 622.454 146.456 622.527 146.11 622.674C145.77 622.82 145.47 623.027 145.21 623.294C144.956 623.554 144.756 623.86 144.61 624.214C144.47 624.56 144.4 624.937 144.4 625.344C144.4 625.757 144.47 626.14 144.61 626.494C144.756 626.847 144.956 627.157 145.21 627.424C145.47 627.684 145.77 627.887 146.11 628.034C146.456 628.18 146.83 628.254 147.23 628.254ZM154.215 628.944C153.742 628.944 153.312 628.83 152.925 628.604C152.539 628.37 152.232 628.057 152.005 627.664C151.779 627.27 151.665 626.83 151.665 626.344C151.665 625.857 151.779 625.42 152.005 625.034C152.232 624.64 152.539 624.327 152.925 624.094C153.312 623.86 153.742 623.744 154.215 623.744C154.582 623.744 154.935 623.814 155.275 623.954C155.615 624.087 155.915 624.28 156.175 624.534L155.705 625.074C155.505 624.86 155.275 624.7 155.015 624.594C154.762 624.48 154.499 624.424 154.225 624.424C153.885 624.424 153.575 624.51 153.295 624.684C153.022 624.85 152.802 625.08 152.635 625.374C152.475 625.66 152.395 625.984 152.395 626.344C152.395 626.704 152.475 627.03 152.635 627.324C152.802 627.617 153.025 627.85 153.305 628.024C153.585 628.19 153.895 628.274 154.235 628.274C154.509 628.274 154.765 628.22 155.005 628.114C155.252 628.007 155.482 627.85 155.695 627.644L156.155 628.144C155.889 628.397 155.589 628.594 155.255 628.734C154.922 628.874 154.575 628.944 154.215 628.944ZM159.09 628.954C158.657 628.954 158.323 628.85 158.09 628.644C157.857 628.437 157.74 628.137 157.74 627.744V624.474H156.66V623.844H157.74V622.574L158.47 622.384V623.844H159.98V624.474H158.47V627.554C158.47 627.82 158.53 628.014 158.65 628.134C158.77 628.247 158.967 628.304 159.24 628.304C159.38 628.304 159.503 628.294 159.61 628.274C159.723 628.254 159.843 628.22 159.97 628.174V628.824C159.843 628.87 159.7 628.904 159.54 628.924C159.387 628.944 159.237 628.954 159.09 628.954Z" fill="#FFF8EF"/>
<path d="M232.781 628.854V621.854H233.551L237.761 627.534V621.854H238.491V628.854H237.811L233.511 623.024V628.854H232.781ZM242.217 628.954C241.744 628.954 241.311 628.84 240.917 628.614C240.531 628.38 240.224 628.067 239.997 627.674C239.771 627.28 239.657 626.84 239.657 626.354C239.657 625.867 239.771 625.427 239.997 625.034C240.224 624.64 240.531 624.33 240.917 624.104C241.311 623.87 241.744 623.754 242.217 623.754C242.697 623.754 243.131 623.87 243.517 624.104C243.904 624.33 244.211 624.64 244.437 625.034C244.664 625.427 244.777 625.867 244.777 626.354C244.777 626.84 244.664 627.28 244.437 627.674C244.211 628.067 243.904 628.38 243.517 628.614C243.131 628.84 242.697 628.954 242.217 628.954ZM242.217 628.294C242.557 628.294 242.864 628.207 243.137 628.034C243.417 627.86 243.637 627.627 243.797 627.334C243.964 627.04 244.047 626.714 244.047 626.354C244.047 625.987 243.964 625.66 243.797 625.374C243.637 625.08 243.417 624.847 243.137 624.674C242.864 624.5 242.557 624.414 242.217 624.414C241.877 624.414 241.567 624.5 241.287 624.674C241.014 624.847 240.794 625.08 240.627 625.374C240.467 625.66 240.387 625.987 240.387 626.354C240.387 626.714 240.467 627.04 240.627 627.334C240.794 627.627 241.014 627.86 241.287 628.034C241.567 628.207 241.877 628.294 242.217 628.294ZM247.249 628.854L245.079 623.844H245.899L247.609 627.894L249.319 623.844H250.109L247.949 628.854H247.249Z" fill="#FFF8EF"/>
<path d="M320.524 628.154H322.104C322.51 628.154 322.887 628.084 323.234 627.944C323.58 627.804 323.884 627.607 324.144 627.354C324.404 627.1 324.604 626.804 324.744 626.464C324.89 626.124 324.964 625.754 324.964 625.354C324.964 624.954 324.89 624.584 324.744 624.244C324.604 623.904 324.404 623.607 324.144 623.354C323.884 623.1 323.58 622.904 323.234 622.764C322.887 622.624 322.51 622.554 322.104 622.554H320.524V628.154ZM319.754 628.854V621.854H322.064C322.597 621.854 323.087 621.94 323.534 622.114C323.98 622.287 324.367 622.53 324.694 622.844C325.027 623.157 325.284 623.527 325.464 623.954C325.65 624.38 325.744 624.847 325.744 625.354C325.744 625.86 325.654 626.327 325.474 626.754C325.294 627.18 325.037 627.55 324.704 627.864C324.377 628.177 323.987 628.42 323.534 628.594C323.087 628.767 322.597 628.854 322.064 628.854H319.754ZM329.161 628.944C328.681 628.944 328.244 628.83 327.851 628.604C327.464 628.37 327.154 628.057 326.921 627.664C326.694 627.27 326.581 626.83 326.581 626.344C326.581 625.864 326.691 625.43 326.911 625.044C327.131 624.65 327.427 624.34 327.801 624.114C328.174 623.88 328.591 623.764 329.051 623.764C329.497 623.764 329.897 623.88 330.251 624.114C330.611 624.34 330.894 624.65 331.101 625.044C331.314 625.43 331.421 625.864 331.421 626.344V626.574H327.311C327.351 626.9 327.454 627.194 327.621 627.454C327.794 627.714 328.017 627.92 328.291 628.074C328.564 628.22 328.864 628.294 329.191 628.294C329.451 628.294 329.704 628.254 329.951 628.174C330.197 628.094 330.404 627.98 330.571 627.834L331.031 628.324C330.751 628.53 330.457 628.687 330.151 628.794C329.851 628.894 329.521 628.944 329.161 628.944ZM327.331 625.984H330.681C330.641 625.684 330.541 625.417 330.381 625.184C330.227 624.944 330.034 624.757 329.801 624.624C329.567 624.484 329.311 624.414 329.031 624.414C328.744 624.414 328.481 624.48 328.241 624.614C328.001 624.747 327.801 624.934 327.641 625.174C327.481 625.407 327.377 625.677 327.331 625.984ZM334.775 628.944C334.302 628.944 333.872 628.83 333.485 628.604C333.099 628.37 332.792 628.057 332.565 627.664C332.339 627.27 332.225 626.83 332.225 626.344C332.225 625.857 332.339 625.42 332.565 625.034C332.792 624.64 333.099 624.327 333.485 624.094C333.872 623.86 334.302 623.744 334.775 623.744C335.142 623.744 335.495 623.814 335.835 623.954C336.175 624.087 336.475 624.28 336.735 624.534L336.265 625.074C336.065 624.86 335.835 624.7 335.575 624.594C335.322 624.48 335.059 624.424 334.785 624.424C334.445 624.424 334.135 624.51 333.855 624.684C333.582 624.85 333.362 625.08 333.195 625.374C333.035 625.66 332.955 625.984 332.955 626.344C332.955 626.704 333.035 627.03 333.195 627.324C333.362 627.617 333.585 627.85 333.865 628.024C334.145 628.19 334.455 628.274 334.795 628.274C335.069 628.274 335.325 628.22 335.565 628.114C335.812 628.007 336.042 627.85 336.255 627.644L336.715 628.144C336.449 628.397 336.149 628.594 335.815 628.734C335.482 628.874 335.135 628.944 334.775 628.944Z" fill="#FFF8EF"/>
<g style="mix-blend-mode:overlay">
<path d="M106.441 640.193V456.265" stroke="url(#paint4_linear_526_4281)"/>
</g>
<g style="mix-blend-mode:overlay">
<path d="M193.832 640.193V456.265" stroke="url(#paint5_linear_526_4281)"/>
</g>
<g style="mix-blend-mode:overlay">
<path d="M283.256 640.193V456.265" stroke="url(#paint6_linear_526_4281)"/>
</g>
<g filter="url(#filter6_d_526_4281)">
<circle cx="384.365" cy="628.509" r="32.0097" fill="url(#paint7_radial_526_4281)"/>
</g>
<path d="M389.318 629.354C389.318 631.013 387.059 632.856 384.272 632.856C381.486 632.856 379.227 631.013 379.227 629.354C379.227 627.695 380.391 630.88 384.272 630.88C387.765 630.88 389.318 627.695 389.318 629.354Z" fill="#C34424"/>
<path d="M380.017 620.037C380.017 622.297 376.124 624.808 371.323 624.808C366.521 624.808 362.629 622.297 362.629 620.037C362.629 617.777 364.168 622.584 371.323 622.451C378.637 622.451 380.017 617.777 380.017 620.037Z" fill="#C34424"/>
<path d="M406.099 620.037C406.099 622.297 402.206 624.808 397.405 624.808C392.603 624.808 388.711 622.297 388.711 620.037C388.711 617.777 390.25 622.584 397.405 622.451C404.719 622.451 406.099 617.777 406.099 620.037Z" fill="#C34424"/>
<defs>
<filter id="filter0_d_526_4281" x="1.16406" y="2.37207" width="488.99" height="344.692" filterUnits="userSpaceOnUse" color-interpolation-filters="sRGB">
<feFlood flood-opacity="0" result="BackgroundImageFix"/>
<feColorMatrix in="SourceAlpha" type="matrix" values="0 0 0 0 0 0 0 0 0 0 0 0 0 0 0 0 0 0 127 0" result="hardAlpha"/>
<feOffset dy="4"/>
<feGaussianBlur stdDeviation="12.5"/>
<feComposite in2="hardAlpha" operator="out"/>
<feColorMatrix type="matrix" values="0 0 0 0 0.845833 0 0 0 0 0.845833 0 0 0 0 0.845833 0 0 0 1 0"/>
<feBlend mode="normal" in2="BackgroundImageFix" result="effect1_dropShadow_526_4281"/>
<feBlend mode="normal" in="SourceGraphic" in2="effect1_dropShadow_526_4281" result="shape"/>
</filter>
<filter id="filter1_d_526_4281" x="-51.002" y="-120.926" width="670.271" height="670.271" filterUnits="userSpaceOnUse" color-interpolation-filters="sRGB">
<feFlood flood-opacity="0" result="BackgroundImageFix"/>
<feColorMatrix in="SourceAlpha" type="matrix" values="0 0 0 0 0 0 0 0 0 0 0 0 0 0 0 0 0 0 127 0" result="hardAlpha"/>
<feOffset dx="40" dy="44"/>
<feGaussianBlur stdDeviation="22"/>
<feComposite in2="hardAlpha" operator="out"/>
<feColorMatrix type="matrix" values="0 0 0 0 0.616667 0 0 0 0 0.175417 0 0 0 0 0.0642361 0 0 0 0.6 0"/>
<feBlend mode="normal" in2="BackgroundImageFix" result="effect1_dropShadow_526_4281"/>
<feBlend mode="normal" in="SourceGraphic" in2="effect1_dropShadow_526_4281" result="shape"/>
</filter>
<filter id="filter2_d_526_4281" x="90.2461" y="20.3232" width="347.773" height="347.773" filterUnits="userSpaceOnUse" color-interpolation-filters="sRGB">
<feFlood flood-opacity="0" result="BackgroundImageFix"/>
<feColorMatrix in="SourceAlpha" type="matrix" values="0 0 0 0 0 0 0 0 0 0 0 0 0 0 0 0 0 0 127 0" result="hardAlpha"/>
<feOffset dx="20" dy="24"/>
<feGaussianBlur stdDeviation="12"/>
<feComposite in2="hardAlpha" operator="out"/>
<feColorMatrix type="matrix" values="0 0 0 0 0.741667 0 0 0 0 0.26281 0 0 0 0 0.142153 0 0 0 0.6 0"/>
<feBlend mode="normal" in2="BackgroundImageFix" result="effect1_dropShadow_526_4281"/>
<feBlend mode="normal" in="SourceGraphic" in2="effect1_dropShadow_526_4281" result="shape"/>
</filter>
<filter id="filter3_d_526_4281" x="144.234" y="74.3105" width="199.799" height="199.8" filterUnits="userSpaceOnUse" color-interpolation-filters="sRGB">
<feFlood flood-opacity="0" result="BackgroundImageFix"/>
<feColorMatrix in="SourceAlpha" type="matrix" values="0 0 0 0 0 0 0 0 0 0 0 0 0 0 0 0 0 0 127 0" result="hardAlpha"/>
<feOffset dy="4"/>
<feGaussianBlur stdDeviation="6"/>
<feComposite in2="hardAlpha" operator="out"/>
<feColorMatrix type="matrix" values="0 0 0 0 1 0 0 0 0 0.792763 0 0 0 0 0.5625 0 0 0 0.5 0"/>
<feBlend mode="normal" in2="BackgroundImageFix" result="effect1_dropShadow_526_4281"/>
<feBlend mode="normal" in="SourceGraphic" in2="effect1_dropShadow_526_4281" result="shape"/>
</filter>
<filter id="filter4_d_526_4281" x="259.271" y="189.35" width="409.729" height="408.712" filterUnits="userSpaceOnUse" color-interpolation-filters="sRGB">
<feFlood flood-opacity="0" result="BackgroundImageFix"/>
<feColorMatrix in="SourceAlpha" type="matrix" values="0 0 0 0 0 0 0 0 0 0 0 0 0 0 0 0 0 0 127 0" result="hardAlpha"/>
<feOffset dy="4"/>
<feGaussianBlur stdDeviation="12.5"/>
<feComposite in2="hardAlpha" operator="out"/>
<feColorMatrix type="matrix" values="0 0 0 0 0.845833 0 0 0 0 0.845833 0 0 0 0 0.845833 0 0 0 1 0"/>
<feBlend mode="normal" in2="BackgroundImageFix" result="effect1_dropShadow_526_4281"/>
<feBlend mode="normal" in="SourceGraphic" in2="effect1_dropShadow_526_4281" result="shape"/>
</filter>
<filter id="filter5_d_526_4281" x="417.48" y="0" width="99.4063" height="99.4063" filterUnits="userSpaceOnUse" color-interpolation-filters="sRGB">
<feFlood flood-opacity="0" result="BackgroundImageFix"/>
<feColorMatrix in="SourceAlpha" type="matrix" values="0 0 0 0 0 0 0 0 0 0 0 0 0 0 0 0 0 0 127 0" result="hardAlpha"/>
<feOffset dy="10.0723"/>
<feGaussianBlur stdDeviation="5.03614"/>
<feComposite in2="hardAlpha" operator="out"/>
<feColorMatrix type="matrix" values="0 0 0 0 0.870588 0 0 0 0 0.705882 0 0 0 0 0.529412 0 0 0 0.25 0"/>
<feBlend mode="normal" in2="BackgroundImageFix" result="effect1_dropShadow_526_4281"/>
<feBlend mode="normal" in="SourceGraphic" in2="effect1_dropShadow_526_4281" result="shape"/>
</filter>
<filter id="filter6_d_526_4281" x="342.283" y="596.499" width="84.1641" height="84.1641" filterUnits="userSpaceOnUse" color-interpolation-filters="sRGB">
<feFlood flood-opacity="0" result="BackgroundImageFix"/>
<feColorMatrix in="SourceAlpha" type="matrix" values="0 0 0 0 0 0 0 0 0 0 0 0 0 0 0 0 0 0 127 0" result="hardAlpha"/>
<feOffset dy="10.0723"/>
<feGaussianBlur stdDeviation="5.03614"/>
<feComposite in2="hardAlpha" operator="out"/>
<feColorMatrix type="matrix" values="0 0 0 0 0.870588 0 0 0 0 0.705882 0 0 0 0 0.529412 0 0 0 0.25 0"/>
<feBlend mode="normal" in2="BackgroundImageFix" result="effect1_dropShadow_526_4281"/>
<feBlend mode="normal" in="SourceGraphic" in2="effect1_dropShadow_526_4281" result="shape"/>
</filter>
<linearGradient id="paint0_linear_526_4281" x1="244.134" y1="-13.2109" x2="244.134" y2="461.346" gradientUnits="userSpaceOnUse">
<stop stop-color="#FADBBB" stop-opacity="0"/>
<stop offset="1" stop-color="#FADBBB"/>
</linearGradient>
<linearGradient id="paint1_linear_526_4281" x1="244.133" y1="20.3232" x2="244.133" y2="320.097" gradientUnits="userSpaceOnUse">
<stop stop-color="#FADBBB" stop-opacity="0"/>
<stop offset="1" stop-color="#FADBBB"/>
</linearGradient>
<radialGradient id="paint2_radial_526_4281" cx="0" cy="0" r="1" gradientUnits="userSpaceOnUse" gradientTransform="translate(467.184 17.7657) rotate(90) scale(61.4965)">
<stop offset="0.265885" stop-color="white"/>
<stop offset="1" stop-color="#FFD9AD"/>
</radialGradient>
<linearGradient id="paint3_linear_526_4281" x1="193.832" y1="526.381" x2="193.832" y2="640.193" gradientUnits="userSpaceOnUse">
<stop stop-color="white"/>
<stop offset="1" stop-color="white" stop-opacity="0"/>
</linearGradient>
<linearGradient id="paint4_linear_526_4281" x1="106.941" y1="456.265" x2="106.941" y2="640.193" gradientUnits="userSpaceOnUse">
<stop offset="0.307292" stop-color="#FFF8EF" stop-opacity="0"/>
<stop offset="1" stop-color="#FFF8EF"/>
</linearGradient>
<linearGradient id="paint5_linear_526_4281" x1="194.332" y1="456.265" x2="194.332" y2="640.193" gradientUnits="userSpaceOnUse">
<stop offset="0.307292" stop-color="#FFF8EF" stop-opacity="0"/>
<stop offset="1" stop-color="#FFF8EF"/>
</linearGradient>
<linearGradient id="paint6_linear_526_4281" x1="283.756" y1="456.265" x2="283.756" y2="640.193" gradientUnits="userSpaceOnUse">
<stop offset="0.307292" stop-color="#FFF8EF" stop-opacity="0"/>
<stop offset="1" stop-color="#FFF8EF"/>
</linearGradient>
<radialGradient id="paint7_radial_526_4281" cx="0" cy="0" r="1" gradientUnits="userSpaceOnUse" gradientTransform="translate(384.365 610.848) rotate(90) scale(49.6702)">
<stop offset="0.265885" stop-color="white"/>
<stop offset="1" stop-color="#FFD9AD"/>
</radialGradient>
</defs>
</svg>
