<svg width="120" height="131" viewBox="0 0 120 131" fill="none" xmlns="http://www.w3.org/2000/svg">
<circle cx="60.5" cy="40.5" r="39" stroke="#F0D5B7" stroke-width="3"/>
<path d="M66.7679 41.5686C66.7679 43.6676 63.9097 45.9997 60.3839 45.9997C56.8582 45.9997 54 43.6675 54 41.5686C54 39.4697 55.4732 43.4998 60.3839 43.4998C64.8036 43.4998 66.7679 39.4696 66.7679 41.5686Z" fill="#F0D5B7"/>
<path d="M55 29.7808C55 32.6403 50.0751 35.8174 44 35.8174C37.9249 35.8174 33 32.6402 33 29.7808C33 26.9215 34.9478 33.0038 44 32.8356C53.2542 32.8356 55 26.9214 55 29.7808Z" fill="#F0D5B7"/>
<path d="M88 29.7808C88 32.6403 83.0751 35.8174 77 35.8174C70.9249 35.8174 66 32.6402 66 29.7808C66 26.9215 67.9478 33.0038 77 32.8356C86.2542 32.8356 88 26.9214 88 29.7808Z" fill="#F0D5B7"/>
<path d="M9.27647 122C11.5725 122 13.5325 121.188 15.1285 119.592L15.1845 119.536V120.824C15.1845 121.58 15.6045 122 16.3605 122C17.1725 122 17.5925 121.608 17.5925 120.824V110.156C17.5925 107.888 16.7805 105.928 15.1285 104.276C13.5605 102.68 11.5445 101.868 9.27647 101.868C7.00847 101.868 4.99247 102.68 3.42447 104.276C1.80047 105.928 0.988467 107.888 0.988467 110.156V113.712C0.988467 115.98 1.80047 117.94 3.42447 119.592C5.02047 121.188 6.98047 122 9.27647 122ZM3.39647 110.156C3.39647 106.908 6.02847 104.248 9.27647 104.248C12.5525 104.248 15.1845 106.908 15.1845 110.156V113.712C15.1845 116.96 12.5525 119.592 9.27647 119.592C6.02847 119.592 3.39647 116.96 3.39647 113.712V110.156ZM25.2006 122C25.9846 122 26.3766 121.608 26.3766 120.824V110.156C26.3766 106.908 29.0086 104.248 32.2566 104.248C35.5046 104.248 38.1366 106.908 38.1366 110.156V120.824C38.1366 121.58 38.7526 122 39.3966 122C40.1526 122 40.5726 121.58 40.5726 120.824V110.156C40.5726 106.908 43.2046 104.248 46.4806 104.248C49.7286 104.248 52.3606 106.908 52.3606 110.156V120.824C52.3606 121.608 52.7526 122 53.5646 122C54.3766 122 54.7686 121.608 54.7686 120.824V110.156C54.7686 107.832 53.9286 105.928 52.3606 104.276C50.7086 102.68 48.7486 101.868 46.4806 101.868C44.2126 101.868 42.1966 102.68 40.6286 104.276C40.0966 104.808 39.7886 105.228 39.3686 105.9C38.9486 105.256 38.5566 104.696 38.1366 104.276C36.5406 102.68 34.5806 101.868 32.2566 101.868C29.9886 101.868 28.0566 102.68 26.4046 104.276L26.3766 104.304V103.1C26.3766 102.288 25.9846 101.868 25.2006 101.868C24.3886 101.868 23.9686 102.288 23.9686 103.1V120.824C23.9686 121.608 24.3886 122 25.2006 122ZM62.2842 119.592C61.5842 119.592 61.0802 120.124 61.0802 120.824C61.0802 121.58 61.5842 122 62.2842 122H72.0002C72.8122 122 73.2042 121.608 73.2042 120.824C73.2042 120.012 72.8122 119.592 72.0002 119.592H68.3322V104.248H72.0002C72.8122 104.248 73.2042 103.856 73.2042 103.1C73.2042 102.288 72.8122 101.868 72.0002 101.868H62.2842C61.5842 101.868 61.0802 102.428 61.0802 103.1C61.0802 103.856 61.5842 104.248 62.2842 104.248H65.9242V119.592H62.2842ZM87.7253 122C90.0493 122 92.0093 121.188 93.6053 119.592C95.2293 117.968 96.0413 116.008 96.0413 113.712C96.0413 112.9 95.6213 112.508 94.8093 112.508H87.7253C86.9133 112.508 86.5213 112.9 86.5213 113.712C86.5213 114.524 86.9133 114.916 87.7253 114.916H93.4933C92.9053 117.52 90.4973 119.592 87.7253 119.592C84.4773 119.592 81.8453 116.96 81.8453 113.712V110.156C81.8453 106.908 84.4773 104.276 87.7253 104.276C90.0773 104.276 92.8493 106.236 93.2413 108.14C93.4653 109.316 96.2373 109.568 95.5093 107.132C95.1733 106.04 94.4733 105.144 93.6053 104.276C92.0093 102.68 90.0493 101.868 87.7253 101.868C85.4573 101.868 83.4973 102.68 81.8453 104.276C80.2493 105.928 79.4373 107.888 79.4373 110.156V113.712C79.4373 115.98 80.2493 117.94 81.8453 119.592C83.4973 121.188 85.4573 122 87.7253 122ZM116.582 104.276C114.986 102.68 113.026 101.868 110.702 101.868C108.378 101.868 106.418 102.68 104.822 104.276C103.226 105.928 102.414 107.888 102.414 110.156V113.712C102.414 115.98 103.226 117.94 104.822 119.592C106.418 121.188 108.378 122 110.702 122C113.026 122 114.986 121.188 116.582 119.592C118.206 117.94 119.018 115.98 119.018 113.712V110.156C119.018 107.888 118.206 105.928 116.582 104.276ZM114.958 106.124C116.078 107.216 116.694 108.644 116.694 110.296V113.572C116.694 115.168 116.078 116.652 114.93 117.744C113.754 118.948 112.354 119.564 110.702 119.564C109.106 119.564 107.65 118.948 106.446 117.744C105.326 116.652 104.738 115.224 104.738 113.572V110.296C104.738 108.644 105.326 107.216 106.446 106.124C107.65 104.92 109.106 104.304 110.702 104.304C112.354 104.304 113.754 104.92 114.93 106.124H114.958Z" fill="#F0D5B7"/>
</svg>
