<svg width="242" height="152" viewBox="0 0 242 152" fill="none" xmlns="http://www.w3.org/2000/svg">
<g filter="url(#filter0_dddd_525_1770)">
<rect x="51" y="18" width="140" height="50" rx="4" fill="black"/>
</g>
<path d="M98.21 41.08C97.67 41.08 97.1733 40.9933 96.72 40.82C96.2667 40.64 95.8733 40.39 95.54 40.07C95.2067 39.7433 94.9467 39.3633 94.76 38.93C94.5733 38.4967 94.48 38.02 94.48 37.5C94.48 36.98 94.5733 36.5033 94.76 36.07C94.9467 35.6367 95.2067 35.26 95.54 34.94C95.88 34.6133 96.2767 34.3633 96.73 34.19C97.1833 34.01 97.6833 33.92 98.23 33.92C98.7833 33.92 99.29 34.01 99.75 34.19C100.21 34.37 100.6 34.64 100.92 35L100.3 35.62C100.013 35.34 99.7 35.1367 99.36 35.01C99.0267 34.8767 98.6633 34.81 98.27 34.81C97.87 34.81 97.4967 34.8767 97.15 35.01C96.81 35.1433 96.5133 35.33 96.26 35.57C96.0133 35.81 95.82 36.0967 95.68 36.43C95.5467 36.7567 95.48 37.1133 95.48 37.5C95.48 37.88 95.5467 38.2367 95.68 38.57C95.82 38.8967 96.0133 39.1833 96.26 39.43C96.5133 39.67 96.81 39.8567 97.15 39.99C97.49 40.1233 97.86 40.19 98.26 40.19C98.6333 40.19 98.99 40.1333 99.33 40.02C99.6767 39.9 99.9967 39.7033 100.29 39.43L100.86 40.19C100.513 40.4833 100.107 40.7067 99.64 40.86C99.18 41.0067 98.7033 41.08 98.21 41.08ZM99.9 40.06V37.46H100.86V40.19L99.9 40.06ZM104.995 41.06C104.428 41.06 103.928 40.9433 103.495 40.71C103.068 40.4767 102.735 40.1567 102.495 39.75C102.261 39.3433 102.145 38.8767 102.145 38.35C102.145 37.8233 102.258 37.3567 102.485 36.95C102.718 36.5433 103.035 36.2267 103.435 36C103.841 35.7667 104.298 35.65 104.805 35.65C105.318 35.65 105.771 35.7633 106.165 35.99C106.558 36.2167 106.865 36.5367 107.085 36.95C107.311 37.3567 107.425 37.8333 107.425 38.38C107.425 38.42 107.421 38.4667 107.415 38.52C107.415 38.5733 107.411 38.6233 107.405 38.67H102.895V37.98H106.905L106.515 38.22C106.521 37.88 106.451 37.5767 106.305 37.31C106.158 37.0433 105.955 36.8367 105.695 36.69C105.441 36.5367 105.145 36.46 104.805 36.46C104.471 36.46 104.175 36.5367 103.915 36.69C103.655 36.8367 103.451 37.0467 103.305 37.32C103.158 37.5867 103.085 37.8933 103.085 38.24V38.4C103.085 38.7533 103.165 39.07 103.325 39.35C103.491 39.6233 103.721 39.8367 104.015 39.99C104.308 40.1433 104.645 40.22 105.025 40.22C105.338 40.22 105.621 40.1667 105.875 40.06C106.135 39.9533 106.361 39.7933 106.555 39.58L107.085 40.2C106.845 40.48 106.545 40.6933 106.185 40.84C105.831 40.9867 105.435 41.06 104.995 41.06ZM110.578 41.06C110.044 41.06 109.631 40.9167 109.338 40.63C109.044 40.3433 108.898 39.9333 108.898 39.4V34.54H109.858V39.36C109.858 39.6467 109.928 39.8667 110.068 40.02C110.214 40.1733 110.421 40.25 110.688 40.25C110.988 40.25 111.238 40.1667 111.438 40L111.738 40.69C111.591 40.8167 111.414 40.91 111.208 40.97C111.008 41.03 110.798 41.06 110.578 41.06ZM107.998 36.49V35.7H111.378V36.49H107.998ZM115.584 41V35.7H116.544V41H115.584ZM116.064 34.68C115.877 34.68 115.72 34.62 115.594 34.5C115.474 34.38 115.414 34.2333 115.414 34.06C115.414 33.88 115.474 33.73 115.594 33.61C115.72 33.49 115.877 33.43 116.064 33.43C116.25 33.43 116.404 33.49 116.524 33.61C116.65 33.7233 116.714 33.8667 116.714 34.04C116.714 34.22 116.654 34.3733 116.534 34.5C116.414 34.62 116.257 34.68 116.064 34.68ZM120.197 41.06C119.663 41.06 119.25 40.9167 118.957 40.63C118.663 40.3433 118.517 39.9333 118.517 39.4V34.54H119.477V39.36C119.477 39.6467 119.547 39.8667 119.687 40.02C119.833 40.1733 120.04 40.25 120.307 40.25C120.607 40.25 120.857 40.1667 121.057 40L121.357 40.69C121.21 40.8167 121.033 40.91 120.827 40.97C120.627 41.03 120.417 41.06 120.197 41.06ZM117.617 36.49V35.7H120.997V36.49H117.617ZM128.503 41.08C127.97 41.08 127.473 40.99 127.013 40.81C126.56 40.63 126.166 40.38 125.833 40.06C125.5 39.7333 125.24 39.3533 125.053 38.92C124.866 38.4867 124.773 38.0133 124.773 37.5C124.773 36.9867 124.866 36.5133 125.053 36.08C125.24 35.6467 125.5 35.27 125.833 34.95C126.166 34.6233 126.56 34.37 127.013 34.19C127.466 34.01 127.963 33.92 128.503 33.92C129.036 33.92 129.526 34.01 129.973 34.19C130.426 34.3633 130.82 34.6133 131.153 34.94C131.493 35.26 131.753 35.6367 131.933 36.07C132.12 36.5033 132.213 36.98 132.213 37.5C132.213 38.02 132.12 38.4967 131.933 38.93C131.753 39.3633 131.493 39.7433 131.153 40.07C130.82 40.39 130.426 40.64 129.973 40.82C129.526 40.9933 129.036 41.08 128.503 41.08ZM128.503 40.19C128.89 40.19 129.246 40.1233 129.573 39.99C129.906 39.8567 130.193 39.67 130.433 39.43C130.68 39.1833 130.87 38.8967 131.003 38.57C131.143 38.2433 131.213 37.8867 131.213 37.5C131.213 37.1133 131.143 36.7567 131.003 36.43C130.87 36.1033 130.68 35.82 130.433 35.58C130.193 35.3333 129.906 35.1433 129.573 35.01C129.246 34.8767 128.89 34.81 128.503 34.81C128.11 34.81 127.746 34.8767 127.413 35.01C127.086 35.1433 126.8 35.3333 126.553 35.58C126.306 35.82 126.113 36.1033 125.973 36.43C125.84 36.7567 125.773 37.1133 125.773 37.5C125.773 37.8867 125.84 38.2433 125.973 38.57C126.113 38.8967 126.306 39.1833 126.553 39.43C126.8 39.67 127.086 39.8567 127.413 39.99C127.746 40.1233 128.11 40.19 128.503 40.19ZM136.431 35.65C136.865 35.65 137.245 35.7333 137.571 35.9C137.905 36.0667 138.165 36.32 138.351 36.66C138.538 37 138.631 37.43 138.631 37.95V41H137.671V38.06C137.671 37.5467 137.545 37.16 137.291 36.9C137.045 36.64 136.695 36.51 136.241 36.51C135.901 36.51 135.605 36.5767 135.351 36.71C135.098 36.8433 134.901 37.04 134.761 37.3C134.628 37.56 134.561 37.8833 134.561 38.27V41H133.601V35.7H134.521V37.13L134.371 36.75C134.545 36.4033 134.811 36.1333 135.171 35.94C135.531 35.7467 135.951 35.65 136.431 35.65Z" fill="white"/>
<path d="M99.894 55.168C99.1193 55.168 98.4053 55.0467 97.752 54.804C97.108 54.552 96.5433 54.1973 96.058 53.74C95.582 53.2827 95.2087 52.746 94.938 52.13C94.6767 51.514 94.546 50.8373 94.546 50.1C94.546 49.3627 94.6767 48.686 94.938 48.07C95.2087 47.454 95.5867 46.9173 96.072 46.46C96.5573 46.0027 97.1267 45.6527 97.78 45.41C98.4333 45.158 99.152 45.032 99.936 45.032C100.804 45.032 101.583 45.1767 102.274 45.466C102.974 45.7553 103.562 46.1753 104.038 46.726L102.582 48.07C102.227 47.6967 101.84 47.4213 101.42 47.244C101 47.0573 100.543 46.964 100.048 46.964C99.572 46.964 99.138 47.0387 98.746 47.188C98.354 47.3373 98.0133 47.552 97.724 47.832C97.444 48.112 97.2247 48.4433 97.066 48.826C96.9167 49.2087 96.842 49.6333 96.842 50.1C96.842 50.5573 96.9167 50.9773 97.066 51.36C97.2247 51.7427 97.444 52.0787 97.724 52.368C98.0133 52.648 98.3493 52.8627 98.732 53.012C99.124 53.1613 99.5533 53.236 100.02 53.236C100.468 53.236 100.902 53.166 101.322 53.026C101.751 52.8767 102.167 52.6293 102.568 52.284L103.856 53.922C103.324 54.3233 102.703 54.6313 101.994 54.846C101.294 55.0607 100.594 55.168 99.894 55.168ZM101.784 53.628V49.946H103.856V53.922L101.784 53.628ZM109.393 55.112C108.59 55.112 107.876 54.944 107.251 54.608C106.635 54.272 106.145 53.8147 105.781 53.236C105.426 52.648 105.249 51.9807 105.249 51.234C105.249 50.478 105.426 49.8107 105.781 49.232C106.145 48.644 106.635 48.1867 107.251 47.86C107.876 47.524 108.59 47.356 109.393 47.356C110.186 47.356 110.895 47.524 111.521 47.86C112.146 48.1867 112.636 48.6393 112.991 49.218C113.345 49.7967 113.523 50.4687 113.523 51.234C113.523 51.9807 113.345 52.648 112.991 53.236C112.636 53.8147 112.146 54.272 111.521 54.608C110.895 54.944 110.186 55.112 109.393 55.112ZM109.393 53.32C109.757 53.32 110.083 53.236 110.373 53.068C110.662 52.9 110.891 52.662 111.059 52.354C111.227 52.0367 111.311 51.6633 111.311 51.234C111.311 50.7953 111.227 50.422 111.059 50.114C110.891 49.806 110.662 49.568 110.373 49.4C110.083 49.232 109.757 49.148 109.393 49.148C109.029 49.148 108.702 49.232 108.413 49.4C108.123 49.568 107.89 49.806 107.713 50.114C107.545 50.422 107.461 50.7953 107.461 51.234C107.461 51.6633 107.545 52.0367 107.713 52.354C107.89 52.662 108.123 52.9 108.413 53.068C108.702 53.236 109.029 53.32 109.393 53.32ZM118.567 55.112C117.764 55.112 117.05 54.944 116.425 54.608C115.809 54.272 115.319 53.8147 114.955 53.236C114.6 52.648 114.423 51.9807 114.423 51.234C114.423 50.478 114.6 49.8107 114.955 49.232C115.319 48.644 115.809 48.1867 116.425 47.86C117.05 47.524 117.764 47.356 118.567 47.356C119.36 47.356 120.069 47.524 120.695 47.86C121.32 48.1867 121.81 48.6393 122.165 49.218C122.519 49.7967 122.697 50.4687 122.697 51.234C122.697 51.9807 122.519 52.648 122.165 53.236C121.81 53.8147 121.32 54.272 120.695 54.608C120.069 54.944 119.36 55.112 118.567 55.112ZM118.567 53.32C118.931 53.32 119.257 53.236 119.547 53.068C119.836 52.9 120.065 52.662 120.233 52.354C120.401 52.0367 120.485 51.6633 120.485 51.234C120.485 50.7953 120.401 50.422 120.233 50.114C120.065 49.806 119.836 49.568 119.547 49.4C119.257 49.232 118.931 49.148 118.567 49.148C118.203 49.148 117.876 49.232 117.587 49.4C117.297 49.568 117.064 49.806 116.887 50.114C116.719 50.422 116.635 50.7953 116.635 51.234C116.635 51.6633 116.719 52.0367 116.887 52.354C117.064 52.662 117.297 52.9 117.587 53.068C117.876 53.236 118.203 53.32 118.567 53.32ZM127.698 57.828C126.989 57.828 126.303 57.7393 125.64 57.562C124.987 57.394 124.441 57.1373 124.002 56.792L124.87 55.224C125.188 55.4853 125.589 55.6907 126.074 55.84C126.569 55.9987 127.054 56.078 127.53 56.078C128.305 56.078 128.865 55.9053 129.21 55.56C129.565 55.2147 129.742 54.7013 129.742 54.02V52.886L129.882 50.996L129.854 49.092V47.468H131.926V53.74C131.926 55.14 131.562 56.1713 130.834 56.834C130.106 57.4967 129.061 57.828 127.698 57.828ZM127.362 54.636C126.662 54.636 126.028 54.4867 125.458 54.188C124.898 53.88 124.446 53.4553 124.1 52.914C123.764 52.3633 123.596 51.724 123.596 50.996C123.596 50.2587 123.764 49.6193 124.1 49.078C124.446 48.5273 124.898 48.1027 125.458 47.804C126.028 47.5053 126.662 47.356 127.362 47.356C127.997 47.356 128.557 47.4867 129.042 47.748C129.528 48 129.906 48.3967 130.176 48.938C130.447 49.47 130.582 50.156 130.582 50.996C130.582 51.8267 130.447 52.5127 130.176 53.054C129.906 53.586 129.528 53.9827 129.042 54.244C128.557 54.5053 127.997 54.636 127.362 54.636ZM127.796 52.844C128.179 52.844 128.52 52.7693 128.818 52.62C129.117 52.4613 129.35 52.242 129.518 51.962C129.686 51.682 129.77 51.36 129.77 50.996C129.77 50.6227 129.686 50.3007 129.518 50.03C129.35 49.75 129.117 49.5353 128.818 49.386C128.52 49.2273 128.179 49.148 127.796 49.148C127.414 49.148 127.073 49.2273 126.774 49.386C126.476 49.5353 126.238 49.75 126.06 50.03C125.892 50.3007 125.808 50.6227 125.808 50.996C125.808 51.36 125.892 51.682 126.06 51.962C126.238 52.242 126.476 52.4613 126.774 52.62C127.073 52.7693 127.414 52.844 127.796 52.844ZM133.959 55V44.612H136.143V55H133.959ZM141.908 55.112C141.049 55.112 140.293 54.944 139.64 54.608C138.996 54.272 138.497 53.8147 138.142 53.236C137.787 52.648 137.61 51.9807 137.61 51.234C137.61 50.478 137.783 49.8107 138.128 49.232C138.483 48.644 138.963 48.1867 139.57 47.86C140.177 47.524 140.863 47.356 141.628 47.356C142.365 47.356 143.028 47.5147 143.616 47.832C144.213 48.14 144.685 48.588 145.03 49.176C145.375 49.7547 145.548 50.45 145.548 51.262C145.548 51.346 145.543 51.444 145.534 51.556C145.525 51.6587 145.515 51.7567 145.506 51.85H139.388V50.576H144.358L143.518 50.954C143.518 50.562 143.439 50.2213 143.28 49.932C143.121 49.6427 142.902 49.4187 142.622 49.26C142.342 49.092 142.015 49.008 141.642 49.008C141.269 49.008 140.937 49.092 140.648 49.26C140.368 49.4187 140.149 49.6473 139.99 49.946C139.831 50.2353 139.752 50.5807 139.752 50.982V51.318C139.752 51.7287 139.841 52.0927 140.018 52.41C140.205 52.718 140.461 52.956 140.788 53.124C141.124 53.2827 141.516 53.362 141.964 53.362C142.365 53.362 142.715 53.3013 143.014 53.18C143.322 53.0587 143.602 52.8767 143.854 52.634L145.016 53.894C144.671 54.286 144.237 54.5893 143.714 54.804C143.191 55.0093 142.589 55.112 141.908 55.112ZM151.121 55V45.2H155.363C156.24 45.2 156.996 45.3447 157.631 45.634C158.266 45.914 158.756 46.32 159.101 46.852C159.446 47.384 159.619 48.0187 159.619 48.756C159.619 49.484 159.446 50.114 159.101 50.646C158.756 51.178 158.266 51.5887 157.631 51.878C156.996 52.158 156.24 52.298 155.363 52.298H152.381L153.389 51.276V55H151.121ZM153.389 51.528L152.381 50.45H155.237C155.937 50.45 156.46 50.3007 156.805 50.002C157.15 49.7033 157.323 49.288 157.323 48.756C157.323 48.2147 157.15 47.7947 156.805 47.496C156.46 47.1973 155.937 47.048 155.237 47.048H152.381L153.389 45.97V51.528ZM161.221 55V44.612H163.405V55H161.221ZM170.052 55V53.53L169.912 53.208V50.576C169.912 50.1093 169.767 49.7453 169.478 49.484C169.198 49.2227 168.764 49.092 168.176 49.092C167.774 49.092 167.378 49.1573 166.986 49.288C166.603 49.4093 166.276 49.5773 166.006 49.792L165.222 48.266C165.632 47.9767 166.127 47.7527 166.706 47.594C167.284 47.4353 167.872 47.356 168.47 47.356C169.618 47.356 170.509 47.6267 171.144 48.168C171.778 48.7093 172.096 49.554 172.096 50.702V55H170.052ZM167.756 55.112C167.168 55.112 166.664 55.014 166.244 54.818C165.824 54.6127 165.502 54.3373 165.278 53.992C165.054 53.6467 164.942 53.2593 164.942 52.83C164.942 52.382 165.049 51.99 165.264 51.654C165.488 51.318 165.838 51.0567 166.314 50.87C166.79 50.674 167.41 50.576 168.176 50.576H170.178V51.85H168.414C167.9 51.85 167.546 51.934 167.35 52.102C167.163 52.27 167.07 52.48 167.07 52.732C167.07 53.012 167.177 53.236 167.392 53.404C167.616 53.5627 167.919 53.642 168.302 53.642C168.666 53.642 168.992 53.558 169.282 53.39C169.571 53.2127 169.781 52.956 169.912 52.62L170.248 53.628C170.089 54.1133 169.8 54.482 169.38 54.734C168.96 54.986 168.418 55.112 167.756 55.112ZM174.888 57.828C174.496 57.828 174.108 57.7673 173.726 57.646C173.343 57.5247 173.03 57.3567 172.788 57.142L173.586 55.588C173.754 55.7373 173.945 55.854 174.16 55.938C174.384 56.022 174.603 56.064 174.818 56.064C175.126 56.064 175.368 55.9893 175.546 55.84C175.732 55.7 175.9 55.462 176.05 55.126L176.442 54.202L176.61 53.964L179.312 47.468H181.412L178.01 55.462C177.767 56.0687 177.487 56.5447 177.17 56.89C176.862 57.2353 176.516 57.478 176.134 57.618C175.76 57.758 175.345 57.828 174.888 57.828ZM176.176 55.294L172.816 47.468H175.07L177.674 53.768L176.176 55.294Z" fill="white"/>
<g filter="url(#filter1_ii_525_1770)">
<path d="M64.463 30.3972C64.172 30.7052 64 31.1832 64 31.8022V53.9182C64 54.5382 64.172 55.0152 64.463 55.3232L64.537 55.3952L76.926 43.0062V42.8602V42.7142L64.537 30.3242L64.463 30.3972Z" fill="url(#paint0_linear_525_1770)"/>
<path d="M81.0548 47.137L76.9258 43.006V42.86V42.714L81.0558 38.584L81.1488 38.637L86.0418 41.417C87.4388 42.211 87.4388 43.51 86.0418 44.305L81.1488 47.085L81.0548 47.137Z" fill="url(#paint1_linear_525_1770)"/>
<g filter="url(#filter2_i_525_1770)">
<path d="M81.1489 47.0834L76.9249 42.8594L64.4629 55.3224C64.9229 55.8104 65.6839 55.8704 66.5409 55.3844L81.1489 47.0834Z" fill="url(#paint2_linear_525_1770)"/>
</g>
<path d="M81.1489 38.6361L66.5409 30.3361C65.6839 29.8491 64.9229 29.9101 64.4629 30.3981L76.9259 42.8611L81.1489 38.6361Z" fill="url(#paint3_linear_525_1770)"/>
</g>
<defs>
<filter id="filter0_dddd_525_1770" x="0" y="0" width="242" height="152" filterUnits="userSpaceOnUse" color-interpolation-filters="sRGB">
<feFlood flood-opacity="0" result="BackgroundImageFix"/>
<feColorMatrix in="SourceAlpha" type="matrix" values="0 0 0 0 0 0 0 0 0 0 0 0 0 0 0 0 0 0 127 0" result="hardAlpha"/>
<feOffset dy="1.4945"/>
<feGaussianBlur stdDeviation="1.15484"/>
<feColorMatrix type="matrix" values="0 0 0 0 0 0 0 0 0 0 0 0 0 0 0 0 0 0 0.0268173 0"/>
<feBlend mode="normal" in2="BackgroundImageFix" result="effect1_dropShadow_525_1770"/>
<feColorMatrix in="SourceAlpha" type="matrix" values="0 0 0 0 0 0 0 0 0 0 0 0 0 0 0 0 0 0 127 0" result="hardAlpha"/>
<feOffset dy="4.13211"/>
<feGaussianBlur stdDeviation="3.193"/>
<feColorMatrix type="matrix" values="0 0 0 0 0 0 0 0 0 0 0 0 0 0 0 0 0 0 0.0399899 0"/>
<feBlend mode="normal" in2="effect1_dropShadow_525_1770" result="effect2_dropShadow_525_1770"/>
<feColorMatrix in="SourceAlpha" type="matrix" values="0 0 0 0 0 0 0 0 0 0 0 0 0 0 0 0 0 0 127 0" result="hardAlpha"/>
<feOffset dy="9.94853"/>
<feGaussianBlur stdDeviation="7.6875"/>
<feColorMatrix type="matrix" values="0 0 0 0 0 0 0 0 0 0 0 0 0 0 0 0 0 0 0.0582218 0"/>
<feBlend mode="normal" in2="effect2_dropShadow_525_1770" result="effect3_dropShadow_525_1770"/>
<feColorMatrix in="SourceAlpha" type="matrix" values="0 0 0 0 0 0 0 0 0 0 0 0 0 0 0 0 0 0 127 0" result="hardAlpha"/>
<feOffset dy="33"/>
<feGaussianBlur stdDeviation="25.5"/>
<feColorMatrix type="matrix" values="0 0 0 0 0 0 0 0 0 0 0 0 0 0 0 0 0 0 0.08 0"/>
<feBlend mode="normal" in2="effect3_dropShadow_525_1770" result="effect4_dropShadow_525_1770"/>
<feBlend mode="normal" in="SourceGraphic" in2="effect4_dropShadow_525_1770" result="shape"/>
</filter>
<filter id="filter1_ii_525_1770" x="64" y="30" width="23.0898" height="25.7197" filterUnits="userSpaceOnUse" color-interpolation-filters="sRGB">
<feFlood flood-opacity="0" result="BackgroundImageFix"/>
<feBlend mode="normal" in="SourceGraphic" in2="BackgroundImageFix" result="shape"/>
<feColorMatrix in="SourceAlpha" type="matrix" values="0 0 0 0 0 0 0 0 0 0 0 0 0 0 0 0 0 0 127 0" result="hardAlpha"/>
<feOffset dy="-0.15"/>
<feComposite in2="hardAlpha" operator="arithmetic" k2="-1" k3="1"/>
<feColorMatrix type="matrix" values="0 0 0 0 0 0 0 0 0 0 0 0 0 0 0 0 0 0 0.12 0"/>
<feBlend mode="normal" in2="shape" result="effect1_innerShadow_525_1770"/>
<feColorMatrix in="SourceAlpha" type="matrix" values="0 0 0 0 0 0 0 0 0 0 0 0 0 0 0 0 0 0 127 0" result="hardAlpha"/>
<feOffset dy="0.15"/>
<feComposite in2="hardAlpha" operator="arithmetic" k2="-1" k3="1"/>
<feColorMatrix type="matrix" values="0 0 0 0 1 0 0 0 0 1 0 0 0 0 1 0 0 0 0.25 0"/>
<feBlend mode="normal" in2="effect1_innerShadow_525_1770" result="effect2_innerShadow_525_1770"/>
</filter>
<filter id="filter2_i_525_1770" x="64.4629" y="42.8594" width="16.6855" height="12.8604" filterUnits="userSpaceOnUse" color-interpolation-filters="sRGB">
<feFlood flood-opacity="0" result="BackgroundImageFix"/>
<feBlend mode="normal" in="SourceGraphic" in2="BackgroundImageFix" result="shape"/>
<feColorMatrix in="SourceAlpha" type="matrix" values="0 0 0 0 0 0 0 0 0 0 0 0 0 0 0 0 0 0 127 0" result="hardAlpha"/>
<feOffset dy="-0.15"/>
<feComposite in2="hardAlpha" operator="arithmetic" k2="-1" k3="1"/>
<feColorMatrix type="matrix" values="0 0 0 0 0 0 0 0 0 0 0 0 0 0 0 0 0 0 0.08 0"/>
<feBlend mode="normal" in2="shape" result="effect1_innerShadow_525_1770"/>
</filter>
<linearGradient id="paint0_linear_525_1770" x1="75.8278" y1="31.5682" x2="59.0458" y2="48.3502" gradientUnits="userSpaceOnUse">
<stop stop-color="#00A0FF"/>
<stop offset="0.0066" stop-color="#00A1FF"/>
<stop offset="0.2601" stop-color="#00BEFF"/>
<stop offset="0.5122" stop-color="#00D2FF"/>
<stop offset="0.7604" stop-color="#00DFFF"/>
<stop offset="1" stop-color="#00E3FF"/>
</linearGradient>
<linearGradient id="paint1_linear_525_1770" x1="87.8603" y1="42.86" x2="63.6644" y2="42.86" gradientUnits="userSpaceOnUse">
<stop stop-color="#FFE000"/>
<stop offset="0.4087" stop-color="#FFBD00"/>
<stop offset="0.7754" stop-color="#FFA500"/>
<stop offset="1" stop-color="#FF9C00"/>
</linearGradient>
<linearGradient id="paint2_linear_525_1770" x1="78.855" y1="45.1533" x2="56.0965" y2="67.9118" gradientUnits="userSpaceOnUse">
<stop stop-color="#FF3A44"/>
<stop offset="1" stop-color="#C31162"/>
</linearGradient>
<linearGradient id="paint3_linear_525_1770" x1="61.3243" y1="23.0359" x2="71.4866" y2="33.1982" gradientUnits="userSpaceOnUse">
<stop stop-color="#32A071"/>
<stop offset="0.0685" stop-color="#2DA771"/>
<stop offset="0.4762" stop-color="#15CF74"/>
<stop offset="0.8009" stop-color="#06E775"/>
<stop offset="1" stop-color="#00F076"/>
</linearGradient>
</defs>
</svg>
