<svg width="173" height="40" viewBox="0 0 173 40" fill="none" xmlns="http://www.w3.org/2000/svg">
<path fill-rule="evenodd" clip-rule="evenodd" d="M20.5 38C30.4411 38 38.5 29.9411 38.5 20C38.5 10.0589 30.4411 2 20.5 2C10.5589 2 2.5 10.0589 2.5 20C2.5 29.9411 10.5589 38 20.5 38ZM20.5 40C31.5457 40 40.5 31.0457 40.5 20C40.5 8.9543 31.5457 0 20.5 0C9.4543 0 0.5 8.9543 0.5 20C0.5 31.0457 9.4543 40 20.5 40Z" fill="#F0D5B7"/>
<path d="M23.5961 20.5276C23.5961 21.5642 22.1847 22.7159 20.4436 22.7159C18.7025 22.7159 17.291 21.5641 17.291 20.5276C17.291 19.4911 18.0185 21.4813 20.4436 21.4813C22.6261 21.4813 23.5961 19.4911 23.5961 20.5276Z" fill="#F0D5B7"/>
<path d="M17.7841 14.7069C17.7841 16.119 15.3521 17.6879 12.352 17.6879C9.35196 17.6879 6.91992 16.1189 6.91992 14.7069C6.91992 13.2948 7.88181 16.2985 12.352 16.2154C16.922 16.2154 17.7841 13.2948 17.7841 14.7069Z" fill="#F0D5B7"/>
<path d="M34.081 14.7069C34.081 16.119 31.649 17.6879 28.6489 17.6879C25.6488 17.6879 23.2168 16.1189 23.2168 14.7069C23.2168 13.2948 24.1787 16.2985 28.6489 16.2154C33.2189 16.2154 34.081 13.2948 34.081 14.7069Z" fill="#F0D5B7"/>
<path d="M60.238 30C62.534 30 64.494 29.188 66.09 27.592L66.146 27.536V28.824C66.146 29.58 66.566 30 67.322 30C68.134 30 68.554 29.608 68.554 28.824V18.156C68.554 15.888 67.742 13.928 66.09 12.276C64.522 10.68 62.506 9.868 60.238 9.868C57.97 9.868 55.954 10.68 54.386 12.276C52.762 13.928 51.95 15.888 51.95 18.156V21.712C51.95 23.98 52.762 25.94 54.386 27.592C55.982 29.188 57.942 30 60.238 30ZM54.358 18.156C54.358 14.908 56.99 12.248 60.238 12.248C63.514 12.248 66.146 14.908 66.146 18.156V21.712C66.146 24.96 63.514 27.592 60.238 27.592C56.99 27.592 54.358 24.96 54.358 21.712V18.156ZM76.1621 30C76.9461 30 77.3381 29.608 77.3381 28.824V18.156C77.3381 14.908 79.9701 12.248 83.2181 12.248C86.4661 12.248 89.0981 14.908 89.0981 18.156V28.824C89.0981 29.58 89.7141 30 90.3581 30C91.1141 30 91.5341 29.58 91.5341 28.824V18.156C91.5341 14.908 94.1661 12.248 97.4421 12.248C100.69 12.248 103.322 14.908 103.322 18.156V28.824C103.322 29.608 103.714 30 104.526 30C105.338 30 105.73 29.608 105.73 28.824V18.156C105.73 15.832 104.89 13.928 103.322 12.276C101.67 10.68 99.7101 9.868 97.4421 9.868C95.1741 9.868 93.1581 10.68 91.5901 12.276C91.0581 12.808 90.7501 13.228 90.3301 13.9C89.9101 13.256 89.5181 12.696 89.0981 12.276C87.5021 10.68 85.5421 9.868 83.2181 9.868C80.9501 9.868 79.0181 10.68 77.3661 12.276L77.3381 12.304V11.1C77.3381 10.288 76.9461 9.868 76.1621 9.868C75.3501 9.868 74.9301 10.288 74.9301 11.1V28.824C74.9301 29.608 75.3501 30 76.1621 30ZM113.246 27.592C112.546 27.592 112.042 28.124 112.042 28.824C112.042 29.58 112.546 30 113.246 30H122.962C123.774 30 124.166 29.608 124.166 28.824C124.166 28.012 123.774 27.592 122.962 27.592H119.294V12.248H122.962C123.774 12.248 124.166 11.856 124.166 11.1C124.166 10.288 123.774 9.868 122.962 9.868H113.246C112.546 9.868 112.042 10.428 112.042 11.1C112.042 11.856 112.546 12.248 113.246 12.248H116.886V27.592H113.246ZM138.687 30C141.011 30 142.971 29.188 144.567 27.592C146.191 25.968 147.003 24.008 147.003 21.712C147.003 20.9 146.583 20.508 145.771 20.508H138.687C137.875 20.508 137.483 20.9 137.483 21.712C137.483 22.524 137.875 22.916 138.687 22.916H144.455C143.867 25.52 141.459 27.592 138.687 27.592C135.439 27.592 132.807 24.96 132.807 21.712V18.156C132.807 14.908 135.439 12.276 138.687 12.276C141.039 12.276 143.811 14.236 144.203 16.14C144.427 17.316 147.199 17.568 146.471 15.132C146.135 14.04 145.435 13.144 144.567 12.276C142.971 10.68 141.011 9.868 138.687 9.868C136.419 9.868 134.459 10.68 132.807 12.276C131.211 13.928 130.399 15.888 130.399 18.156V21.712C130.399 23.98 131.211 25.94 132.807 27.592C134.459 29.188 136.419 30 138.687 30ZM167.544 12.276C165.948 10.68 163.988 9.868 161.664 9.868C159.34 9.868 157.38 10.68 155.784 12.276C154.188 13.928 153.376 15.888 153.376 18.156V21.712C153.376 23.98 154.188 25.94 155.784 27.592C157.38 29.188 159.34 30 161.664 30C163.988 30 165.948 29.188 167.544 27.592C169.168 25.94 169.98 23.98 169.98 21.712V18.156C169.98 15.888 169.168 13.928 167.544 12.276ZM165.92 14.124C167.04 15.216 167.656 16.644 167.656 18.296V21.572C167.656 23.168 167.04 24.652 165.892 25.744C164.716 26.948 163.316 27.564 161.664 27.564C160.068 27.564 158.612 26.948 157.408 25.744C156.288 24.652 155.7 23.224 155.7 21.572V18.296C155.7 16.644 156.288 15.216 157.408 14.124C158.612 12.92 160.068 12.304 161.664 12.304C163.316 12.304 164.716 12.92 165.892 14.124H165.92Z" fill="#F0D5B7"/>
</svg>
