<svg width="119" height="22" viewBox="0 0 119 22" fill="none" xmlns="http://www.w3.org/2000/svg">
<path d="M8.77335 21.066C11.0694 21.066 13.0294 20.254 14.6254 18.658L14.6814 18.602V19.89C14.6814 20.646 15.1014 21.066 15.8574 21.066C16.6694 21.066 17.0894 20.674 17.0894 19.89V9.22202C17.0894 6.95402 16.2774 4.99402 14.6254 3.34202C13.0574 1.74602 11.0414 0.934021 8.77335 0.934021C6.50535 0.934021 4.48935 1.74602 2.92135 3.34202C1.29735 4.99402 0.485352 6.95402 0.485352 9.22202V12.778C0.485352 15.046 1.29735 17.006 2.92135 18.658C4.51735 20.254 6.47735 21.066 8.77335 21.066ZM2.89335 9.22202C2.89335 5.97402 5.52535 3.31402 8.77335 3.31402C12.0494 3.31402 14.6814 5.97402 14.6814 9.22202V12.778C14.6814 16.026 12.0494 18.658 8.77335 18.658C5.52535 18.658 2.89335 16.026 2.89335 12.778V9.22202Z" fill="#FADBBB"/>
<path d="M24.6975 21.066C25.4815 21.066 25.8735 20.674 25.8735 19.89V9.22202C25.8735 5.97402 28.5055 3.31402 31.7535 3.31402C35.0015 3.31402 37.6335 5.97402 37.6335 9.22202V19.89C37.6335 20.646 38.2495 21.066 38.8935 21.066C39.6495 21.066 40.0695 20.646 40.0695 19.89V9.22202C40.0695 5.97402 42.7015 3.31402 45.9775 3.31402C49.2255 3.31402 51.8575 5.97402 51.8575 9.22202V19.89C51.8575 20.674 52.2495 21.066 53.0615 21.066C53.8735 21.066 54.2655 20.674 54.2655 19.89V9.22202C54.2655 6.89802 53.4255 4.99402 51.8575 3.34202C50.2055 1.74602 48.2455 0.934021 45.9775 0.934021C43.7095 0.934021 41.6935 1.74602 40.1255 3.34202C39.5935 3.87402 39.2855 4.29402 38.8655 4.96602C38.4455 4.32202 38.0535 3.76202 37.6335 3.34202C36.0375 1.74602 34.0775 0.934021 31.7535 0.934021C29.4855 0.934021 27.5535 1.74602 25.9015 3.34202L25.8735 3.37002V2.16602C25.8735 1.35402 25.4815 0.934021 24.6975 0.934021C23.8855 0.934021 23.4655 1.35402 23.4655 2.16602V19.89C23.4655 20.674 23.8855 21.066 24.6975 21.066Z" fill="#FADBBB"/>
<path d="M61.7811 18.658C61.0811 18.658 60.5771 19.19 60.5771 19.89C60.5771 20.646 61.0811 21.066 61.7811 21.066H71.4971C72.3091 21.066 72.7011 20.674 72.7011 19.89C72.7011 19.078 72.3091 18.658 71.4971 18.658H67.8291V3.31402H71.4971C72.3091 3.31402 72.7011 2.92202 72.7011 2.16602C72.7011 1.35402 72.3091 0.934021 71.4971 0.934021H61.7811C61.0811 0.934021 60.5771 1.49402 60.5771 2.16602C60.5771 2.92202 61.0811 3.31402 61.7811 3.31402H65.4211V18.658H61.7811Z" fill="#FADBBB"/>
<path d="M87.2221 21.066C89.5461 21.066 91.5061 20.254 93.1021 18.658C94.7261 17.034 95.5381 15.074 95.5381 12.778C95.5381 11.966 95.1181 11.574 94.3061 11.574H87.2221C86.4101 11.574 86.0181 11.966 86.0181 12.778C86.0181 13.59 86.4101 13.982 87.2221 13.982H92.9901C92.4021 16.586 89.9941 18.658 87.2221 18.658C83.9741 18.658 81.3421 16.026 81.3421 12.778V9.22202C81.3421 5.97402 83.9741 3.34202 87.2221 3.34202C89.5741 3.34202 92.3461 5.30202 92.7381 7.20602C92.9621 8.38202 95.7341 8.63402 95.0061 6.19802C94.6701 5.10602 93.9701 4.21002 93.1021 3.34202C91.5061 1.74602 89.5461 0.934021 87.2221 0.934021C84.9541 0.934021 82.9941 1.74602 81.3421 3.34202C79.7461 4.99402 78.9341 6.95402 78.9341 9.22202V12.778C78.9341 15.046 79.7461 17.006 81.3421 18.658C82.9941 20.254 84.9541 21.066 87.2221 21.066Z" fill="#FADBBB"/>
<path d="M116.079 3.34202C114.483 1.74602 112.523 0.934021 110.199 0.934021C107.875 0.934021 105.915 1.74602 104.319 3.34202C102.723 4.99402 101.911 6.95402 101.911 9.22202V12.778C101.911 15.046 102.723 17.006 104.319 18.658C105.915 20.254 107.875 21.066 110.199 21.066C112.523 21.066 114.483 20.254 116.079 18.658C117.703 17.006 118.515 15.046 118.515 12.778V9.22202C118.515 6.95402 117.703 4.99402 116.079 3.34202ZM114.455 5.19002C115.575 6.28202 116.191 7.71002 116.191 9.36202V12.638C116.191 14.234 115.575 15.718 114.427 16.81C113.251 18.014 111.851 18.63 110.199 18.63C108.603 18.63 107.147 18.014 105.943 16.81C104.823 15.718 104.235 14.29 104.235 12.638V9.36202C104.235 7.71002 104.823 6.28202 105.943 5.19002C107.147 3.98602 108.603 3.37002 110.199 3.37002C111.851 3.37002 113.251 3.98602 114.427 5.19002H114.455Z" fill="#FADBBB"/>
</svg>
